<svg width="18" height="18" viewBox="0 0 18 18" fill="none" xmlns="http://www.w3.org/2000/svg">
<path d="M2.7393 0.125H4.72868C5.45243 0.125 6.14653 0.407715 6.6583 0.910952C7.17007 1.41419 7.45757 2.09672 7.45757 2.80841V4.7339C7.45757 5.08629 7.38699 5.43523 7.24985 5.7608C7.11271 6.08637 6.9117 6.38218 6.6583 6.63136C6.4049 6.88054 6.10407 7.0782 5.77298 7.21305C5.4419 7.3479 5.08705 7.41731 4.72868 7.41731H2.7393C2.0146 7.41732 1.31942 7.13493 0.805997 6.63198C0.292576 6.12904 0.00275554 5.44653 0 4.7339V2.81865C0 2.10425 0.288605 1.41911 0.802324 0.913951C1.31604 0.408794 2.0128 0.125 2.7393 0.125V0.125Z" fill="#D9D9D9"/>
<path d="M2.7393 10.4922H4.72868C5.09235 10.4908 5.45263 10.5608 5.78837 10.6983C6.12411 10.8357 6.42852 11.0377 6.68372 11.2925C6.93892 11.5473 7.13977 11.8496 7.27445 12.1818C7.40913 12.514 7.47493 12.8693 7.46799 13.2268V15.1831C7.45705 15.8903 7.16362 16.565 6.65108 17.0613C6.13855 17.5576 5.44803 17.8358 4.72868 17.8357H2.7393C2.0128 17.8357 1.31604 17.5519 0.802324 17.0468C0.288605 16.5416 0 15.8565 0 15.1421V13.2268C0 12.5151 0.287507 11.8326 0.799273 11.3294C1.31104 10.8261 2.00514 10.5434 2.72889 10.5434L2.7393 10.4922Z" fill="#D9D9D9"/>
<path d="M13.2706 0.125H15.2599C15.9864 0.125 16.6832 0.408794 17.1969 0.913951C17.7106 1.41911 17.9992 2.10425 17.9992 2.81865V4.7339C17.9992 5.44559 17.7117 6.12812 17.2 6.63136C16.6882 7.1346 15.9941 7.41731 15.2703 7.41731H13.2706C12.5458 7.41732 11.8507 7.13493 11.3372 6.63198C10.8238 6.12904 10.534 5.44653 10.5312 4.7339V2.81865C10.5312 2.10425 10.8199 1.41911 11.3336 0.913951C11.8473 0.408794 12.544 0.125 13.2706 0.125V0.125Z" fill="#D9D9D9"/>
<path d="M13.2724 10.4922H15.2617C15.625 10.4921 15.9846 10.5632 16.3197 10.7011C16.6548 10.839 16.9587 11.0411 17.2136 11.2956C17.4685 11.5501 17.6694 11.8519 17.8046 12.1834C17.9398 12.515 18.0066 12.8696 18.001 13.2268V15.183C18.001 15.8974 17.7124 16.5826 17.1987 17.0877C16.685 17.5929 15.9882 17.8767 15.2617 17.8767H13.2724C12.5495 17.874 11.8569 17.5904 11.3458 17.0877C10.8346 16.5851 10.5462 15.9041 10.5435 15.1933V13.2268C10.5365 12.8701 10.602 12.5157 10.736 12.1842C10.8701 11.8527 11.07 11.5508 11.3241 11.2962C11.5782 11.0415 11.8814 10.8393 12.2159 10.7012C12.5504 10.5632 12.9096 10.4921 13.2724 10.4922V10.4922Z" fill="#D9D9D9"/>
</svg>
