<svg width="28" height="28" viewBox="0 0 28 28" fill="none" xmlns="http://www.w3.org/2000/svg">
<path d="M13.9027 16.0002L13.9027 16.0002H13.9073H13.9075H13.9078H13.908H13.9082H13.9084H13.9086H13.9088H13.909H13.9092H13.9095H13.9097H13.9099H13.9101H13.9103H13.9105H13.9108H13.911H13.9112H13.9114H13.9116H13.9118H13.9121H13.9123H13.9125H13.9127H13.9129H13.9132H13.9134H13.9136H13.9138H13.914H13.9142H13.9145H13.9147H13.9149H13.9151H13.9154H13.9156H13.9158H13.916H13.9162H13.9165H13.9167H13.9169H13.9171H13.9174H13.9176H13.9178H13.918H13.9183H13.9185H13.9187H13.9189H13.9192H13.9194H13.9196H13.9198H13.9201H13.9203H13.9205H13.9207H13.921H13.9212H13.9214H13.9216H13.9219H13.9221H13.9223H13.9226H13.9228H13.923H13.9232H13.9235H13.9237H13.9239H13.9242H13.9244H13.9246H13.9249H13.9251H13.9253H13.9255H13.9258H13.926H13.9262H13.9265H13.9267H13.9269H13.9272H13.9274H13.9276H13.9279H13.9281H13.9283H13.9286H13.9288H13.929H13.9293H13.9295H13.9297H13.93H13.9302H13.9304H13.9307H13.9309H13.9311H13.9314H13.9316H13.9318H13.9321H13.9323H13.9326H13.9328H13.933H13.9333H13.9335H13.9337H13.934H13.9342H13.9344H13.9347H13.9349H13.9352H13.9354H13.9356H13.9359H13.9361H13.9364H13.9366H13.9368H13.9371H13.9373H13.9375H13.9378H13.938H13.9383H13.9385H13.9387H13.939H13.9392H13.9395H13.9397H13.9399H13.9402H13.9404H13.9407H13.9409H13.9411H13.9414H13.9416H13.9419H13.9421H13.9424H13.9426H13.9428H13.9431H13.9433H13.9436H13.9438H13.944H13.9443H13.9445H13.9448H13.945H13.9453H13.9455H13.9457H13.946H13.9462H13.9465H13.9467H13.947H13.9472H13.9475H13.9477H13.9479H13.9482H13.9484H13.9487H13.9489H13.9492H13.9494H13.9496H13.9499H13.9501H13.9504H13.9506H13.9509H13.9511H13.9514H13.9516H13.9519H13.9521H13.9523H13.9526H13.9528H13.9531H13.9533H13.9536H13.9538H13.9541H13.9543H13.9546H13.9548H13.955H13.9553H13.9555H13.9558H13.956H13.9563H13.9565H13.9568H13.957H13.9573H13.9575H13.9578H13.958H13.9582H13.9585H13.9587H13.959H13.9592H13.9595H13.9597H13.96H13.9602H13.9605H13.9607H13.961H13.9612H13.9615H13.9617H13.9619H13.9622H13.9624H13.9627H13.9629H13.9632H13.9634H13.9637H13.9639H13.9642H13.9644H13.9647H13.9649H13.9652H13.9654H13.9657H13.9659H13.9662H13.9664H13.9666H13.9669H13.9671H13.9674H13.9676H13.9679H13.9681H13.9684H13.9686H13.9689H13.9691H13.9694H13.9696H13.9699H13.9701H13.9704H13.9706H13.9708H13.9711H13.9713H13.9716H13.9718H13.9721H13.9723H13.9726H13.9728H13.9731H13.9733H13.9736H13.9738H13.9741H13.9743H13.9746H13.9748H13.975H13.9753H13.9755H13.9758H13.976H13.9763H13.9765H13.9768H13.977H13.9773H13.9775H13.9778H13.978H13.9783H13.9785H13.9787H13.979H13.9792H13.9795H13.9797H13.98H13.9802H13.9805H13.9807H13.981H13.9812H13.9815H13.9817H13.9819H13.9822H13.9824H13.9827H13.9829H13.9832H13.9834H13.9837H13.9839H13.9842H13.9844H13.9846H13.9849H13.9851H13.9854H13.9856H13.9859H13.9861H13.9864H13.9866H13.9868H13.9871H13.9873H13.9876H13.9878H13.9881H13.9883H13.9885H13.9888H13.989H13.9893H13.9895H13.9898H13.99H13.9903H13.9905H13.9907H13.991H13.9912H13.9915H13.9917H13.9919H13.9922H13.9924H13.9927H13.9929H13.9932H13.9934H13.9936H13.9939H13.9941H13.9944H13.9946H13.9948H13.9951H13.9953H13.9956H13.9958H13.996H13.9963H13.9965H13.9968H13.997H13.9972H13.9975H13.9977H13.998H13.9982H13.9984H13.9987H13.9989H13.9992H13.9994H13.9996H13.9999H14.0001H14.0003H14.0006H14.0008H14.0011H14.0013H14.0015H14.0018H14.002H14.0022H14.0025H14.0027H14.003H14.0032H14.0034H14.0037H14.0039H14.0041H14.0044H14.0046H14.0048H14.0051H14.0053H14.0055H14.0058H14.006H14.0062H14.0065H14.0067H14.0069H14.0072H14.0074H14.0076H14.0079H14.0081H14.0083H14.0086H14.0088H14.009H14.0093H14.0095H14.0097H14.01H14.0102H14.0104H14.0106H14.0109H14.0111H14.0113H14.0116H14.0118H14.012H14.0123H14.0125H14.0127H14.0129H14.0132H14.0134H14.0136H14.0139H14.0141H14.0143H14.0145H14.0148H14.015H14.0152H14.0154H14.0157H14.0159H14.0161H14.0163H14.0166H14.0168H14.017H14.0172H14.0175H14.0177H14.0179H14.0181H14.0184H14.0186H14.0188H14.019H14.0192H14.0195H14.0197H14.0199H14.0201H14.0204H14.0206H14.0208H14.021H14.0212H14.0215H14.0217H14.0219H14.0221H14.0223H14.0226H14.0228H14.023H14.0232H14.0234H14.0236H14.0239H14.0241H14.0243H14.0245H14.0247H14.0249H14.0252H14.0254H14.0256H14.0258H14.026H14.0262H14.0264H14.0267H14.0269H14.0271H14.0273H14.0275H14.0277H14.0279H14.0281H14.0282H14.0284H14.0285H14.0286H14.0288H14.0289H14.0291H14.0292H14.0294H14.0295H14.0297H14.0298H14.0299H14.0301H14.0302H14.0304H14.0305H14.0307H14.0308H14.031H14.0311H14.0313H14.0314H14.0316H14.0317H14.0319H14.032H14.0321H14.0323H14.0324H14.0326H14.0327H14.0329H14.033H14.0332H14.0333H14.0335H14.0337H14.0338H14.034H14.0341H14.0343H14.0344H14.0346H14.0347H14.0349H14.035H14.0352H14.0353H14.0355H14.0356H14.0358H14.0359H14.0361H14.0363H14.0364H14.0366H14.0367H14.0369H14.037H14.0372H14.0373H14.0375H14.0377H14.0378H14.038H14.0381H14.0383H14.0384H14.0386H14.0388H14.0389H14.0391H14.0392H14.0394H14.0396H14.0397H14.0399H14.04H14.0402H14.0404H14.0405H14.0407H14.0408H14.041H14.0412H14.0413H14.0415H14.0416H14.0418H14.042H14.0421H14.0423H14.0425H14.0426H14.0428H14.0429H14.0431H14.0433H14.0434H14.0436H14.0438H14.0439H14.0441H14.0443H14.0444H14.0446H14.0448H14.0449H14.0451H14.0452H14.0454H14.0456H14.0457H14.0459H14.0461H14.0462H14.0464H14.0466H14.0467H14.0469H14.0471H14.0472H14.0474H14.0476H14.0477H14.0479H14.0481H14.0483H14.0484H14.0486H14.0488H14.0489H14.0491H14.0493H14.0494H14.0496H14.0498H14.0499H14.0501H14.0503H14.0504H14.0506H14.0508H14.051H14.0511H14.0513H14.0515H14.0516H14.0518H14.052H14.0522H14.0523H14.0525H14.0527H14.0528H14.053H14.0532H14.0534H14.0535H14.0537H14.0539H14.054H14.0542H14.0544H14.0546H14.0547H14.0549H14.0551H14.0552H14.0554H14.0556H14.0558H14.0559H14.0561H14.0563H14.0565H14.0566H14.0568H14.057H14.0572H14.0573H14.0575H14.0577H14.0578H14.058H14.0582H14.0584H14.0585H14.0587H14.0589H14.0591H14.0592H14.0594H14.0596H14.0598H14.0599H14.0601H14.0603H14.0605H14.0606H14.0608H14.061H14.0612H14.0613H14.0615H14.0617H14.0619H14.062H14.0622H14.0624H14.0626H14.0627H14.0629H14.0631H14.0633H14.0634H14.0636H14.0638H14.064H14.0642H14.0643H14.0645H14.0647H14.0649H14.065H14.0652H14.0654H14.0656H14.0657H14.0659H14.0661H14.0663H14.0664H14.0666H14.0668H14.067H14.0671H14.0673H14.0675H14.0677H14.0679H14.068H14.0682H14.0684H14.0686H14.0687H14.0689H14.0691H14.0693H14.0694H14.0696H14.0698H14.07H14.0702H14.0703H14.0705H14.0707H14.0709H14.071H14.0712H14.0714H14.0716H14.0717H14.0719H14.0721H14.0723H14.0724H14.0726H14.0728H14.073H14.0732H14.0733H14.0735H14.0737H14.0739H14.074H14.0742H14.0744H14.0746H14.0747H14.0749H14.0751H14.0753H14.0754H14.0756H14.0758H14.076H14.0762H14.0763H14.0765H14.0767H14.0769H14.077H14.0772H14.0774H14.0776H14.0777H14.0779H14.0781H14.0783H14.0784H14.0786H14.0788H14.079H14.0791H14.0793H14.0795H14.0797H14.0798H14.08H14.0802H14.0804H14.0805H14.0807H14.0809H14.0811H14.0812H14.0814H14.0816H14.0818H14.0819H14.0821H14.0823H14.0825H14.0826H14.0828H14.083H14.0832H14.0833H14.0835H14.0837H14.0838H14.084H14.0842H14.0844H14.0845H14.0847H14.0849H14.0851H14.0852H14.0854H14.0856H14.0857H14.0859H14.0861H14.0863H14.0864H14.0866H14.0868H14.087H14.0871H14.0873H14.0875H14.0876H14.0878H14.088H14.0882H14.0883H14.0885H14.0887H14.0888H14.089H14.0892H14.0893H14.0895H14.0897H14.0899H14.09H14.0902H14.0904H14.0905H14.0907H14.0909H14.091H14.0912H14.0914H14.0915H14.0917H14.0919H14.0921H14.0922H14.0924H14.0926H14.0927H14.0929H14.0931H14.0932H14.0934H14.0936H14.0937H14.0939H14.0941H14.0942H14.0944H14.0946H14.0947H14.0949H14.0951H14.0952H14.0954H14.0956H14.0957H14.0959H14.096H14.0962H14.0964H14.0965H14.0967H14.0969H14.097H14.0972H14.0974H14.0975H14.0977H14.0978H14.098H14.0982H14.0983H14.0985H14.0987H14.0988H14.099H14.0991H14.0993H14.0995H14.0996H14.0998H14.0999H14.1001H14.1003H14.1004H14.1006H14.1007H14.1009H14.1011H14.1012H14.1014H14.1015H14.1017H14.1019H14.102H14.1022H14.1023H14.1025H14.1026H14.1028H14.103H14.1031H14.1033H14.1034H14.1036H14.1037H14.1039H14.104H14.1042H14.1044H14.1045H14.1047H14.1048H14.105H14.1051H14.1053H14.1054H14.1056H14.1057H14.1059H14.106H14.1062H14.1064H14.1065H14.1067H14.1068H14.107H14.1071H14.1073H14.1074H14.1076H14.1077H14.1079H14.108H14.1082H14.1083H14.1085H14.1086H14.1087H14.1089H14.109H14.1092H14.1093H14.1095H14.1096H14.1098H14.1099H14.1101H14.1102H14.1104H14.1105H14.1106H14.1108H14.1109H14.1111H14.1112H14.1114H14.1115H14.1117H14.1118H14.1119H14.1121H14.1122H14.1124H14.1124H14.1125H14.1126H14.1126H14.1127H14.1128H14.1129H14.1129H14.113H14.1131H14.1131H14.1132H14.1133H14.1133H14.1134H14.1135H14.1135H14.1136H14.1137H14.1137H14.1138H14.1139H14.1139H14.114H14.114H14.1141H14.1142H14.1142H14.1143H14.1144H14.1144H14.1145H14.1146H14.1146H14.1147H14.1147H14.1148H14.1149H14.1149H14.115H14.115H14.1151H14.1152H14.1152H14.1153H14.1154H14.1154H14.1155H14.1155H14.1156H14.1156H14.1157H14.1158H14.1158H14.1159H14.1159H14.116H14.1161H14.1161H14.1162H14.1162H14.1163H14.1163H14.1164H14.1164H14.1165H14.1166H14.1166H14.1167H14.1167H14.1168H14.1168H14.1169H14.1169H14.117H14.1171H14.1171H14.1172H14.1172H14.1173H14.1173H14.1174H14.1174H14.1175H14.1175H14.1176H14.1176H14.1177H14.1178H14.1178H14.1179H14.1179H14.118H14.118H14.1181H14.1181H14.1182H14.1182H14.1183H14.1183H14.1184H14.1184H14.1185H14.1185H14.1186H14.1186H14.1187H14.1187H14.1188H14.1188H14.1189H14.1189H14.119H14.119H14.1191H14.1191H14.1192H14.1192H14.1193H14.1193H14.1194H14.1194H14.1195H14.1195H14.1196H14.1196H14.1197H14.1197H14.1198H14.1198H14.1199H14.1199H14.12H14.12H14.1201H14.1201H14.1201H14.1202H14.1202H14.1203H14.1203H14.1204H14.1204H14.1205H14.1205H14.1206H14.1206H14.1207H14.1207H14.1208H14.1208H14.1209H14.1209H14.121H14.121H14.1211H14.1211H14.1211H14.1212H14.1212H14.1213H14.1213H14.1214H14.1214H14.1215H14.1215H14.1216H14.1216H14.1217H14.1217H14.1218H14.1218H14.1219H14.1219H14.122H14.122H14.122H14.1221H14.1221H14.1222H14.1222H14.1223H14.1223H14.1224H14.1224H14.1225H14.1225H14.1226H14.1226H14.1227H14.1227H14.1228H14.1228H14.1228H14.1229H14.1229H14.123H14.123H14.1231H14.1231H14.1232H14.1232H14.1233H14.1233H14.1234H14.1234H14.1235H14.1235H14.1236H14.1236H14.1237H14.1237H14.1238H14.1238H14.1239H14.1239H14.124H14.124H14.1241H14.1241H14.1242H14.1242H14.1242H14.1243H14.1243H14.1244H14.1244H14.1245H14.1245H14.1246H14.1246H14.1247H14.1247H14.1248H14.1248H14.1249H14.1249H14.125H14.1251H14.1251H14.1252H14.1252H14.1253H14.1253H14.1254H14.1254H14.1255H14.1255H14.1256H14.1256H14.1257H14.1257H14.1258H14.1258H14.1259H14.1259H14.126H14.126H14.1261H14.1261H14.1262H14.1263H14.1263H14.1264H14.1264H14.1265H14.1265H14.1266H14.1266H14.1267H14.1267H14.1268H14.1269H14.1269H14.127H14.127H14.1271H14.1271H14.1272H14.1272H14.1273H14.1274H14.1274H14.1275H14.1275H14.1276H14.1277H14.1277H14.1278H14.1278H14.1279H14.1279H14.128H14.1281H14.1281H14.1282H14.1282H14.1283H14.1284H14.1284H14.1285H14.1285H14.1286H14.1287H14.1287H14.1288H14.1289H14.1289H14.129H14.129H14.1291H14.1292H14.1292H14.1293H14.1294H14.1294H14.1295H14.1295H14.1296H14.1297H14.1297H14.1298H14.1299H14.1299H14.13H14.1301H14.1301H14.1302H14.1303H14.1303H14.1304H14.1305H14.1305H14.1306H14.1307H14.1308H14.1308H14.1309H14.131H14.131H14.1311H14.1312H14.1312H14.1313H14.1314H14.1315H14.1315H14.1316H14.1317H14.1317H14.1318H14.1319H14.132H14.132H14.1321H14.1322H14.1323H14.1323H14.1324H14.1325H14.1326H14.1326H14.1327H14.1328H14.1329H14.133H14.133H14.1331H14.1332H14.1333H14.1334H14.1334H14.1335H14.1336H14.1337H14.1338H14.1338H14.1339H14.134H14.1341H14.1342H14.1342H14.1343H14.1344H14.1345H14.1346H14.1347H14.1348H14.1348H14.1349H14.135H14.1351H14.1352H14.1353H14.1354H14.1354H14.1355H14.1356H14.1357H14.1358H14.1359H14.136H14.1361H14.1362H14.1363H14.1363H14.1364H14.1365H14.1366H14.1367H14.1368H14.1369H14.137H14.1371H14.1372H14.1373H14.1374H14.1375H14.1376H14.1377H14.1378H14.1379H14.138H14.1381H14.1382H14.1383H14.1384H14.1385H14.1386H14.1387H14.1388H14.1389H14.139H14.1391H14.1392H14.1393H14.1394H14.1395H14.1396H14.1397H14.1398H14.1399H14.14H14.1401H14.1402H14.1403H14.1405H14.1406H14.1407H14.1408H14.1409H14.141H14.1411H14.1412H14.1413H14.1415H14.1416H14.1417H14.1418H14.1419H14.142H14.1421H14.1423H14.1424H14.1425H14.1426H14.1427H14.1428H14.143H14.1431H14.1432H14.1433H14.1434H14.1436H14.1437H14.1438H14.1439H14.1441H14.1442H14.1443H14.1444H14.1445H14.1447H14.1448H14.1449H14.1451H14.1452H14.1453H14.1454H14.1456H14.1457H14.1458H14.146H14.1461H14.1462H14.1464H14.1465H14.1466H14.1468H14.1469H14.147H14.1472H14.1473H14.1474H14.1476H14.1477H14.1478H14.148H14.1481H14.1483H14.1484H14.1485V16.0003L14.1534 16.0002C16.8522 15.9129 18.9778 13.7177 18.9903 10.9896V10.9889C18.9903 8.22182 16.7404 5.96548 13.9797 5.96548C11.219 5.96548 8.96914 8.22182 8.96914 10.9889C8.96914 13.7072 11.0849 15.913 13.9027 16.0002ZM11.0662 10.9768C11.0662 9.37798 12.3627 8.06731 13.9676 8.06731C15.5724 8.06731 16.8688 9.3777 16.869 10.9763C16.8573 12.5387 15.6579 13.8 14.1276 13.8859C14.0667 13.8802 14.0059 13.8772 13.9541 13.8772C13.9265 13.8772 13.8999 13.8781 13.8763 13.88C13.8642 13.881 13.8488 13.8826 13.8327 13.8856C12.2832 13.8181 11.0662 12.5468 11.0662 10.9768Z" fill="#878790" stroke="#878790" stroke-width="0.3"/>
<path d="M4.78321 22.8118L4.78318 22.8118L4.78289 22.8151C4.75524 23.1339 4.86501 23.4723 5.12116 23.7011C7.54872 25.9269 10.6842 27.1501 13.966 27.1501C17.2477 27.1501 20.3832 25.9269 22.8107 23.7012C23.0628 23.4761 23.1905 23.1505 23.1486 22.8107C22.9856 21.3182 22.0611 19.9526 20.5509 18.9308L20.5502 18.9304C18.7294 17.7133 16.3469 17.1093 13.9705 17.1093C11.5941 17.1093 9.20861 17.7133 7.38196 18.9302L7.38177 18.9304C5.87004 19.9408 4.94583 21.3193 4.78321 22.8118ZM13.966 25.0361C11.4175 25.0361 8.96181 24.1528 6.99926 22.5353C7.22326 21.872 7.75122 21.2206 8.54971 20.6792C10.015 19.7079 11.989 19.2172 13.969 19.2172C15.9491 19.2172 17.917 19.708 19.3699 20.679C20.1695 21.2211 20.7079 21.8728 20.9326 22.5353C18.9701 24.1529 16.5145 25.0361 13.966 25.0361Z" fill="#878790" stroke="#878790" stroke-width="0.3"/>
<path d="M0.85 13.9998C0.85 21.2534 6.73015 27.1497 13.9655 27.1497C21.2008 27.1497 27.081 21.2534 27.081 13.9998C27.081 6.74629 21.2008 0.85 13.9655 0.85C6.73015 0.85 0.85 6.74629 0.85 13.9998ZM2.95914 13.9998C2.95914 7.91494 7.89764 2.96393 13.9655 2.96393C20.0334 2.96393 24.9719 7.91494 24.9719 13.9998C24.9719 20.0847 20.0334 25.0357 13.9655 25.0357C7.89764 25.0357 2.95914 20.0847 2.95914 13.9998Z" fill="#878790" stroke="#878790" stroke-width="0.3"/>
</svg>
