<svg width="17" height="17" viewBox="0 0 17 17" fill="none" xmlns="http://www.w3.org/2000/svg">
<path fill-rule="evenodd" clip-rule="evenodd" d="M8.49996 4.63636C7.21966 4.63636 6.18178 3.59848 6.18178 2.31818C6.18178 1.03789 7.21966 0 8.49996 0C9.78025 0 10.8181 1.03789 10.8181 2.31818C10.8181 3.59848 9.78025 4.63636 8.49996 4.63636ZM8.49983 3.09101C8.9266 3.09101 9.27256 2.74505 9.27256 2.31829C9.27256 1.89152 8.9266 1.54556 8.49983 1.54556C8.07307 1.54556 7.72711 1.89152 7.72711 2.31829C7.72711 2.74505 8.07307 3.09101 8.49983 3.09101ZM7.72706 4.63645H9.27252C10.5528 4.63645 11.5907 5.67433 11.5907 6.95463V7.72736C11.5907 9.00765 10.5528 10.0455 9.27252 10.0455H7.72706C6.44677 10.0455 5.40888 9.00765 5.40888 7.72736V6.95463C5.40888 5.67433 6.44677 4.63645 7.72706 4.63645ZM7.7274 6.18178C7.30063 6.18178 6.95467 6.52774 6.95467 6.9545V7.72723C6.95467 8.154 7.30063 8.49996 7.7274 8.49996H9.27285C9.69962 8.49996 10.0456 8.154 10.0456 7.72723V6.9545C10.0456 6.52774 9.69962 6.18178 9.27285 6.18178H7.7274ZM13.9093 11.5908C12.629 11.5908 11.5911 10.5529 11.5911 9.27262C11.5911 7.99233 12.629 6.95444 13.9093 6.95444C15.1896 6.95444 16.2275 7.99233 16.2275 9.27262C16.2275 10.5529 15.1896 11.5908 13.9093 11.5908ZM13.9092 10.0455C14.3359 10.0455 14.6819 9.69949 14.6819 9.27273C14.6819 8.84596 14.3359 8.5 13.9092 8.5C13.4824 8.5 13.1364 8.84596 13.1364 9.27273C13.1364 9.69949 13.4824 10.0455 13.9092 10.0455ZM13.1364 11.5909H14.6819C15.9622 11.5909 17 12.6288 17 13.9091V14.6818C17 15.9621 15.9622 17 14.6819 17H13.1364C11.8561 17 10.8182 15.9621 10.8182 14.6818V13.9091C10.8182 12.6288 11.8561 11.5909 13.1364 11.5909ZM13.1363 13.1364C12.7095 13.1364 12.3636 13.4824 12.3636 13.9092V14.6819C12.3636 15.1087 12.7095 15.4546 13.1363 15.4546H14.6817C15.1085 15.4546 15.4545 15.1087 15.4545 14.6819V13.9092C15.4545 13.4824 15.1085 13.1364 14.6817 13.1364H13.1363ZM3.09108 11.5908C1.81078 11.5908 0.772895 10.5529 0.772895 9.27262C0.772895 7.99233 1.81078 6.95444 3.09108 6.95444C4.37137 6.95444 5.40926 7.99233 5.40926 9.27262C5.40926 10.5529 4.37137 11.5908 3.09108 11.5908ZM3.09095 10.0455C3.51772 10.0455 3.86368 9.69949 3.86368 9.27273C3.86368 8.84596 3.51772 8.5 3.09095 8.5C2.66419 8.5 2.31822 8.84596 2.31822 9.27273C2.31822 9.69949 2.66419 10.0455 3.09095 10.0455ZM2.31818 11.5909H3.86364C5.14393 11.5909 6.18182 12.6288 6.18182 13.9091V14.6818C6.18182 15.9621 5.14393 17 3.86364 17H2.31818C1.03789 17 0 15.9621 0 14.6818V13.9091C0 12.6288 1.03789 11.5909 2.31818 11.5909ZM2.31806 13.1364C1.89129 13.1364 1.54533 13.4824 1.54533 13.9092V14.6819C1.54533 15.1087 1.89129 15.4546 2.31806 15.4546H3.86351C4.29028 15.4546 4.63624 15.1087 4.63624 14.6819V13.9092C4.63624 13.4824 4.29028 13.1364 3.86351 13.1364H2.31806Z" fill="#D9D9D9"/>
</svg>
