<svg width="25" height="25" viewBox="0 0 25 25" fill="none" xmlns="http://www.w3.org/2000/svg">
<path fill-rule="evenodd" clip-rule="evenodd" d="M12.5 0C11.3579 0 10.2377 0.323915 9.26094 0.936563L3.01094 4.85695C2.09186 5.43343 1.3319 6.24548 0.804482 7.21466C0.277062 8.18384 -1.78805e-05 9.27742 8.65157e-10 10.3898V18.5307C8.65157e-10 20.2465 0.65848 21.892 1.83058 23.1052C3.00268 24.3184 4.5924 25 6.25 25H18.75C20.4076 25 21.9973 24.3184 23.1694 23.1052C24.3415 21.892 25 20.2465 25 18.5307V10.3885C24.9998 9.27639 24.7225 8.18284 24.1951 7.21396C23.6677 6.24509 22.9079 5.4333 21.9891 4.85696L15.7391 0.936574C14.7623 0.323926 13.6421 0 12.5 0ZM10.5566 3.14964C11.1426 2.78206 11.8148 2.58771 12.5 2.58771C13.1852 2.58771 13.8574 2.78206 14.4434 3.14964L20.6934 7.07002C21.2447 7.41583 21.7006 7.90292 22.0171 8.48424C22.3335 9.06549 22.4998 9.72133 22.5 10.3885V18.5307C22.5 19.5602 22.1049 20.5475 21.4016 21.2754C20.6984 22.0033 19.7446 22.4123 18.75 22.4123H17.5V18.5307C17.5 17.1581 16.9732 15.8417 16.0355 14.8711C15.0979 13.9006 13.8261 13.3553 12.5 13.3553C11.1739 13.3553 9.90215 13.9006 8.96447 14.8711C8.02678 15.8417 7.5 17.1581 7.5 18.5307V22.4123H6.25C5.25544 22.4123 4.30161 22.0033 3.59835 21.2754C2.89509 20.5475 2.5 19.5602 2.5 18.5307V10.3898C2.49999 9.72235 2.66623 9.06618 2.98269 8.48467C3.29914 7.90315 3.75511 7.41593 4.30656 7.07004L10.5566 3.14964ZM14.2678 16.7009C14.7366 17.1862 15 17.8444 15 18.5307V22.4123H10V18.5307C10 17.8444 10.2634 17.1862 10.7322 16.7009C11.2011 16.2156 11.837 15.943 12.5 15.943C13.163 15.943 13.7989 16.2156 14.2678 16.7009Z" fill="#878790"/>
</svg>
