<svg width="26" height="26" viewBox="0 0 26 26" fill="none" xmlns="http://www.w3.org/2000/svg">
<path d="M12.9557 25.998C10.8921 25.998 8.82804 26.0034 6.76446 25.9965C4.2961 25.9882 2.64514 24.344 2.63828 21.8857C2.63143 19.4534 2.63192 17.0206 2.64318 14.5883C2.64465 14.2563 2.55948 14.0508 2.26972 13.8434C-0.461492 11.8916 -0.766428 8.32116 1.56489 5.91534C1.74305 5.73144 1.8943 5.50636 2.00541 5.27489C2.32845 4.59964 2.61136 3.90574 2.93343 3.22999C3.9153 1.16989 5.56479 0.0665286 7.83052 0.0346537C11.3302 -0.0143847 14.8313 -0.00800972 18.331 0.0326921C20.4665 0.0577017 22.0171 1.088 22.9373 3.03433C23.1449 3.47322 23.3103 3.93468 23.5487 4.35542C23.9525 5.06942 24.3377 5.80696 24.8384 6.45034C26.6245 8.74387 26.184 12.0191 23.7866 13.7629C23.4527 14.0057 23.3255 14.2435 23.3289 14.652C23.348 17.0436 23.3451 19.4357 23.3367 21.8278C23.3279 24.3699 21.6946 25.9916 19.1474 25.9975C17.0838 26.0024 15.0198 25.9985 12.9562 25.998H12.9557ZM13.0986 2.63516C11.4202 2.63516 9.74138 2.65428 8.06301 2.62927C6.66021 2.60819 5.72338 3.23735 5.18888 4.52314C4.92506 5.15818 4.66369 5.79862 4.33526 6.40032C4.06997 6.8858 3.7523 7.36148 3.37493 7.7631C2.5492 8.64187 2.35782 9.93354 2.97259 10.9545C3.55358 11.9191 4.68718 12.3923 5.80218 12.1354C6.89417 11.8838 7.68759 10.9545 7.75857 9.79035C7.79723 9.15138 7.99596 8.64089 8.62736 8.39324C9.44036 8.07449 10.4002 8.65168 10.4281 9.8232C10.458 11.0693 11.4447 12.0466 12.6439 12.1721C13.965 12.3104 15.0961 11.595 15.4495 10.368C15.5435 10.0414 15.5396 9.68737 15.6047 9.35096C15.7496 8.6046 16.3908 8.19023 17.1367 8.34568C17.8347 8.49083 18.1073 8.87823 18.1837 9.83154C18.2727 10.9467 19.0554 11.8735 20.1244 12.13C21.2546 12.4012 22.4268 11.9059 22.9931 10.9182C23.5536 9.93991 23.3872 8.71984 22.6681 7.86216C22.2227 7.33107 21.8449 6.7333 21.5066 6.1262C21.1733 5.52744 20.9144 4.88553 20.6476 4.25195C20.1758 3.13192 19.3466 2.61211 18.1337 2.62878C16.4554 2.65134 14.7765 2.63467 13.0981 2.63516H13.0986ZM9.13885 12.8082C8.5187 13.301 7.9847 13.8493 7.34301 14.2009C6.70622 14.55 5.96125 14.7011 5.2114 14.957C5.2114 17.3123 5.19965 19.7412 5.22021 22.1701C5.2251 22.7512 5.56773 23.2548 6.13159 23.3088C7.10073 23.4009 8.08504 23.3343 9.09725 23.3343C9.09725 22.5109 9.09431 21.7435 9.09774 20.976C9.109 18.655 10.8016 16.894 13.0105 16.9019C15.1881 16.9097 16.8582 18.6683 16.8665 20.9657C16.8694 21.7498 16.8665 22.5344 16.8665 23.3823C17.7167 23.3823 18.4999 23.3897 19.283 23.3804C20.3035 23.3681 20.747 22.9125 20.7489 21.8773C20.7529 19.852 20.7499 17.8263 20.7504 15.801C20.7504 15.4822 20.7504 15.164 20.7504 14.9668C19.9526 14.6922 19.2057 14.5363 18.5645 14.1866C17.9272 13.839 17.3956 13.2956 16.8171 12.8376C14.6194 15.392 11.4805 15.5558 9.13885 12.8082ZM14.2689 23.348C14.2689 22.4089 14.3135 21.5022 14.2542 20.6023C14.2112 19.9501 13.6468 19.5107 13.0115 19.4926C12.3796 19.4744 11.7834 19.9065 11.7404 20.5513C11.6792 21.4718 11.7247 22.3991 11.7247 23.348H14.2689Z" fill="#878790"/>
</svg>
