<svg width="25" height="26" viewBox="0 0 25 26" fill="none" xmlns="http://www.w3.org/2000/svg">
<path d="M17.1478 13.5613C18.9576 12.1378 20.0731 9.96704 20.0731 7.63125C20.0731 3.42314 16.5594 0 12.24 0C7.92063 0 4.40695 3.42314 4.40695 7.63125C4.40695 9.97192 5.52711 12.1469 7.34362 13.5703C2.97583 15.4373 0 19.7079 0 24.4786C0 25.0432 0.469412 25.5 1.04836 25.5C1.6273 25.5 2.09671 25.0431 2.09671 24.4786C2.09671 19.8566 5.4691 15.8011 10.1156 14.8336C10.5901 14.735 10.9191 14.3377 10.9426 13.8871C10.9433 13.8764 10.9436 13.8657 10.9439 13.855C10.9442 13.8398 10.9444 13.8247 10.944 13.8094C10.9386 13.3986 10.6782 13.0146 10.259 12.8637C8.01276 12.0578 6.50369 9.95525 6.50369 7.63125C6.50369 4.54922 9.07699 2.04272 12.24 2.04272C15.4031 2.04272 17.9764 4.54922 17.9764 7.63125C17.9764 9.95522 16.4673 12.0578 14.2211 12.8637C14.0802 12.9144 13.9576 12.9918 13.8561 13.0873C13.8534 13.0898 13.851 13.0926 13.8483 13.0951C13.8278 13.1148 13.8078 13.135 13.7891 13.1562C13.7809 13.1655 13.7735 13.1755 13.7656 13.1851C13.753 13.2004 13.7402 13.2155 13.7287 13.2315C13.7183 13.2457 13.709 13.2607 13.6993 13.2755C13.691 13.2882 13.6824 13.3006 13.6747 13.3136C13.6656 13.3291 13.6575 13.3453 13.6492 13.3614C13.642 13.3751 13.6346 13.3887 13.6281 13.4027C13.6216 13.4168 13.616 13.4315 13.6101 13.4459C13.603 13.4634 13.5959 13.4807 13.5897 13.4985C13.5857 13.5103 13.5824 13.5224 13.5788 13.5343C13.5723 13.5557 13.5661 13.5772 13.5611 13.5991C13.5602 13.6027 13.559 13.6061 13.5582 13.6098C13.5566 13.6171 13.556 13.6243 13.5546 13.6316C13.5501 13.6541 13.5462 13.6766 13.5433 13.6994C13.5418 13.7118 13.5408 13.724 13.5397 13.7363C13.5379 13.7568 13.5365 13.7774 13.536 13.7982C13.5356 13.8128 13.5358 13.8272 13.5361 13.8417C13.5364 13.8598 13.537 13.8779 13.5384 13.8961C13.5396 13.913 13.5415 13.9298 13.5436 13.9465C13.5456 13.9621 13.5477 13.9777 13.5504 13.9933C13.5538 14.0124 13.5579 14.0313 13.5623 14.0501C13.5655 14.0634 13.5686 14.0768 13.5723 14.0901C13.5781 14.1106 13.5847 14.1307 13.5918 14.1508C13.5946 14.1589 13.5966 14.1672 13.5996 14.1753C13.6015 14.1802 13.6038 14.1847 13.6057 14.1895C13.6104 14.2015 13.6156 14.2133 13.6208 14.2251C13.6284 14.2424 13.6364 14.2594 13.6449 14.276C13.6499 14.2859 13.6549 14.2958 13.6603 14.3055C13.6714 14.3256 13.6831 14.345 13.6954 14.3642C13.6993 14.3702 13.7029 14.3765 13.7069 14.3825C13.7242 14.4081 13.7424 14.433 13.7617 14.4568C13.7641 14.4596 13.7667 14.4623 13.7691 14.4651C13.7857 14.4851 13.8029 14.5043 13.8209 14.5229C13.8291 14.5314 13.8377 14.5395 13.8462 14.5477C13.8587 14.5597 13.8713 14.5714 13.8843 14.5827C13.8955 14.5925 13.9068 14.6021 13.9184 14.6115C13.9286 14.6196 13.9392 14.6273 13.9497 14.635C14.0002 14.6725 14.0545 14.7056 14.1123 14.7339C14.1194 14.7375 14.1266 14.741 14.1338 14.7444C14.1524 14.753 14.1712 14.7611 14.1904 14.7686C14.1988 14.7719 14.2072 14.7748 14.2156 14.7779C14.2499 14.7904 14.285 14.8012 14.3211 14.8103C14.3305 14.8127 14.3398 14.8155 14.3493 14.8176C14.3546 14.8188 14.3596 14.8206 14.3649 14.8217C19.0109 15.7852 22.3833 19.8467 22.3833 24.4787C22.3833 25.0432 22.8527 25.5 23.4316 25.5C24.0106 25.5 24.48 25.0432 24.48 24.4787C24.48 19.7037 21.5095 15.4316 17.1478 13.5613Z" fill="#878790"/>
</svg>
