<svg width="16" height="17" viewBox="0 0 16 17" fill="none" xmlns="http://www.w3.org/2000/svg">
<path d="M11.2077 9.04089C12.3906 8.09185 13.1197 6.64469 13.1197 5.0875C13.1197 2.2821 10.8232 0 8.00002 0C5.17688 0 2.88036 2.2821 2.88036 5.0875C2.88036 6.64794 3.61249 8.09792 4.79975 9.04685C1.94498 10.2915 0 13.1386 0 16.3191C0 16.6955 0.306805 17 0.6852 17C1.06359 17 1.3704 16.6954 1.3704 16.3191C1.3704 13.2377 3.57457 10.5341 6.61151 9.88907C6.9216 9.82331 7.13668 9.55849 7.15201 9.25806C7.15248 9.2509 7.15267 9.24378 7.15291 9.23664C7.1531 9.22654 7.15322 9.21644 7.15297 9.20628C7.1494 8.93238 6.97919 8.67641 6.7052 8.57581C5.2371 8.03853 4.25078 6.63684 4.25078 5.0875C4.25078 3.03281 5.93268 1.36181 8.00002 1.36181C10.0674 1.36181 11.7493 3.03281 11.7493 5.0875C11.7493 6.63682 10.7629 8.03853 9.29482 8.57579C9.20274 8.6096 9.12262 8.6612 9.05627 8.72486C9.05452 8.72655 9.05292 8.72839 9.05119 8.73009C9.03777 8.74323 9.02472 8.75668 9.01251 8.77079C9.00712 8.77698 9.00227 8.78364 8.99711 8.79004C8.98891 8.80026 8.98055 8.81034 8.97298 8.82099C8.96618 8.83047 8.96011 8.8405 8.95378 8.85037C8.94838 8.8588 8.94274 8.86707 8.93773 8.87574C8.93175 8.88607 8.92647 8.89689 8.92102 8.90759C8.91635 8.91676 8.91148 8.92578 8.90723 8.93515C8.90299 8.94455 8.89932 8.95431 8.89549 8.96396C8.89083 8.97558 8.88618 8.98715 8.88217 8.99901C8.87954 9.00685 8.87738 9.0149 8.87502 9.02287C8.87078 9.03716 8.86676 9.0515 8.86345 9.06607C8.86291 9.06849 8.86207 9.07075 8.86154 9.07319C8.86049 9.07805 8.86012 9.08287 8.85919 9.08772C8.85631 9.10272 8.85373 9.11774 8.85185 9.13295C8.85083 9.14117 8.85017 9.14932 8.84947 9.15753C8.84828 9.17123 8.84737 9.18495 8.84704 9.19879C8.84678 9.2085 8.84692 9.21814 8.84709 9.2278C8.84733 9.23987 8.84772 9.25193 8.84861 9.26404C8.84943 9.27533 8.85068 9.28651 8.85204 9.29768C8.85333 9.30809 8.85471 9.31848 8.8565 9.32887C8.85868 9.34161 8.86139 9.35417 8.86427 9.36671C8.86634 9.37563 8.86838 9.38453 8.87081 9.39341C8.87457 9.40708 8.87892 9.42049 8.88351 9.43384C8.88538 9.43928 8.88665 9.44478 8.88865 9.45021C8.88986 9.45345 8.89134 9.45646 8.89259 9.45968C8.8957 9.46769 8.89907 9.47555 8.90248 9.48342C8.90745 9.49494 8.91268 9.50624 8.91822 9.51733C8.92151 9.52393 8.9248 9.53051 8.9283 9.53699C8.93553 9.55038 8.94322 9.56337 8.95124 9.5761C8.9538 9.58015 8.95613 9.58431 8.95878 9.58831C8.97006 9.60542 8.98196 9.62199 8.9946 9.63784C8.99613 9.63975 8.99785 9.64153 8.99939 9.64343C9.01023 9.65672 9.02151 9.66955 9.03325 9.6819C9.03863 9.68757 9.04424 9.69297 9.04981 9.69847C9.05795 9.70646 9.06622 9.71428 9.07473 9.72183C9.08204 9.72835 9.08942 9.73475 9.09701 9.74098C9.10367 9.7464 9.11057 9.75153 9.11742 9.7567C9.15045 9.78168 9.18594 9.80374 9.2237 9.82263C9.22839 9.82497 9.23304 9.82735 9.23778 9.8296C9.24991 9.83533 9.26224 9.84073 9.2748 9.84576C9.28025 9.84794 9.28576 9.8499 9.29127 9.85195C9.31365 9.86027 9.33659 9.86745 9.3602 9.87353C9.36637 9.87512 9.37245 9.87701 9.37866 9.87842C9.3821 9.87922 9.38536 9.88038 9.38882 9.88112C12.4254 10.5234 14.6296 13.2311 14.6296 16.3191C14.6296 16.6955 14.9364 17 15.3148 17C15.6932 17 16 16.6955 16 16.3191C16 13.1358 14.0585 10.2877 11.2077 9.04089Z" fill="#D9D9D9"/>
</svg>
