<svg width="25" height="26" viewBox="0 0 25 26" fill="none" xmlns="http://www.w3.org/2000/svg">
<path d="M12.4997 24.6771C11.7809 24.6771 11.1038 24.3125 10.6247 23.6771L9.06217 21.5937C9.00206 21.5368 8.9255 21.5004 8.84342 21.4896H8.33301C3.98926 21.4896 1.30176 20.3125 1.30176 14.4583V9.25C1.30176 4.64583 3.72884 2.21875 8.33301 2.21875H14.583C15.0101 2.21875 15.3643 2.57292 15.3643 3C15.3643 3.42708 15.0101 3.78125 14.583 3.78125H8.33301C4.60384 3.78125 2.86426 5.52083 2.86426 9.25V14.4583C2.86426 19.1667 4.47884 19.9271 8.33301 19.9271H8.85384C9.38509 19.9271 9.98926 20.2292 10.3122 20.6563L11.8747 22.7396C12.2393 23.2188 12.7601 23.2188 13.1247 22.7396L14.6872 20.6563C15.0309 20.1979 15.5726 19.9271 16.1455 19.9271H16.6663C20.3955 19.9271 22.1351 18.1875 22.1351 14.4583V11.3333C22.1351 10.9062 22.4893 10.5521 22.9163 10.5521C23.3434 10.5521 23.6976 10.9062 23.6976 11.3333V14.4583C23.6976 19.0625 21.2705 21.4896 16.6663 21.4896H16.1455C16.0622 21.4896 15.9893 21.5312 15.9372 21.5937L14.3747 23.6771C13.8955 24.3125 13.2184 24.6771 12.4997 24.6771Z" fill="#878790"/>
<path d="M12.5003 13.4167C11.917 13.4167 11.4587 12.948 11.4587 12.375C11.4587 11.8021 11.9274 11.3334 12.5003 11.3334C13.0732 11.3334 13.542 11.8021 13.542 12.375C13.542 12.948 13.0837 13.4167 12.5003 13.4167ZM16.667 13.4167C16.0837 13.4167 15.6253 12.948 15.6253 12.375C15.6253 11.8021 16.0941 11.3334 16.667 11.3334C17.2399 11.3334 17.7087 11.8021 17.7087 12.375C17.7087 12.948 17.2503 13.4167 16.667 13.4167ZM8.33366 13.4167C7.75033 13.4167 7.29199 12.948 7.29199 12.375C7.29199 11.8021 7.76074 11.3334 8.33366 11.3334C8.90658 11.3334 9.37533 11.8021 9.37533 12.375C9.37533 12.948 8.91699 13.4167 8.33366 13.4167Z" fill="#F74A4A"/>
</svg>
