<svg width="25" height="25" viewBox="0 0 25 25" fill="none" xmlns="http://www.w3.org/2000/svg">
<path d="M12.4997 23.7605C11.7809 23.7605 11.1038 23.3959 10.6247 22.7605L9.06217 20.6771C9.00206 20.6202 8.9255 20.5838 8.84342 20.573H8.33301C3.98926 20.573 1.30176 19.3959 1.30176 13.5417V8.33337C1.30176 3.72921 3.72884 1.30212 8.33301 1.30212H14.583C15.0101 1.30212 15.3643 1.65629 15.3643 2.08337C15.3643 2.51046 15.0101 2.86462 14.583 2.86462H8.33301C4.60384 2.86462 2.86426 4.60421 2.86426 8.33337V13.5417C2.86426 18.25 4.47884 19.0105 8.33301 19.0105H8.85384C9.38509 19.0105 9.98926 19.3125 10.3122 19.7396L11.8747 21.823C12.2393 22.3021 12.7601 22.3021 13.1247 21.823L14.6872 19.7396C15.0309 19.2813 15.5726 19.0105 16.1455 19.0105H16.6663C20.3955 19.0105 22.1351 17.2709 22.1351 13.5417V10.4167C22.1351 9.98962 22.4893 9.63546 22.9163 9.63546C23.3434 9.63546 23.6976 9.98962 23.6976 10.4167V13.5417C23.6976 18.1459 21.2705 20.573 16.6663 20.573H16.1455C16.0622 20.573 15.9893 20.6146 15.9372 20.6771L14.3747 22.7605C13.8955 23.3959 13.2184 23.7605 12.4997 23.7605Z" fill="#878790"/>
<path d="M12.5003 12.5C11.917 12.5 11.4587 12.0313 11.4587 11.4584C11.4587 10.8855 11.9274 10.4167 12.5003 10.4167C13.0732 10.4167 13.542 10.8855 13.542 11.4584C13.542 12.0313 13.0837 12.5 12.5003 12.5ZM16.667 12.5C16.0837 12.5 15.6253 12.0313 15.6253 11.4584C15.6253 10.8855 16.0941 10.4167 16.667 10.4167C17.2399 10.4167 17.7087 10.8855 17.7087 11.4584C17.7087 12.0313 17.2503 12.5 16.667 12.5ZM8.33366 12.5C7.75033 12.5 7.29199 12.0313 7.29199 11.4584C7.29199 10.8855 7.76074 10.4167 8.33366 10.4167C8.90658 10.4167 9.37533 10.8855 9.37533 11.4584C9.37533 12.0313 8.91699 12.5 8.33366 12.5ZM20.3128 8.07296C18.4482 8.07296 16.9274 6.55212 16.9274 4.68754C16.9274 2.82296 18.4482 1.30212 20.3128 1.30212C22.1774 1.30212 23.6982 2.82296 23.6982 4.68754C23.6982 6.55212 22.1774 8.07296 20.3128 8.07296Z" fill="#F74A4A"/>
</svg>
