<?xml version="1.0" encoding="UTF-8"?>
<svg id="Layer_1" data-name="Layer 1" xmlns="http://www.w3.org/2000/svg" viewBox="0 0 23 26">
  <defs>
    <style>
      .cls-1 {
        fill: #878790;
        fill-rule: evenodd;
        stroke-width: 0px;
      }
    </style>
  </defs>
  <path class="cls-1" d="m19.62,12.71c-.49-.8-.93-1.56-.94-3.33-.4.13-.83.2-1.28.2-.11,0-.23,0-.34-.02.03,2.1.64,3.1,1.17,3.99.44.74.79,1.32.79,2.51-.18,2.07-1.57,3.19-8.4,3.19s-8.21-1.07-8.39-3.11c0-1.27.35-1.85.79-2.59.55-.92,1.18-1.96,1.18-4.21,0-2.67,2.64-5.63,6.42-5.63.98,0,1.88.2,2.68.54.13-.55.38-1.05.72-1.48-1.01-.44-2.15-.69-3.4-.69-4.81,0-8.05,3.75-8.05,7.26,0,1.59-.35,2.37-.77,3.09l-.17.28c-.48.8-1.03,1.71-1.02,3.49.37,4.32,4.95,4.68,10.01,4.68s9.65-.36,10.03-4.74c0-1.72-.55-2.63-1.03-3.43Zm-5.86,10.01c-.34-.3-.85-.27-1.15.06-.56.63-1.29.97-2.04.97s-1.47-.34-2.03-.97c-.3-.33-.81-.36-1.15-.06-.33.3-.36.81-.06,1.15.88.97,2.03,1.5,3.24,1.51,1.22,0,2.37-.54,3.25-1.51.3-.33.27-.85-.06-1.15Z"/>
</svg>