<svg width="23" height="26" viewBox="0 0 23 26" fill="none" xmlns="http://www.w3.org/2000/svg">
<path fill-rule="evenodd" clip-rule="evenodd" d="M8.542 22.7815C9.10317 23.4066 9.82358 23.75 10.5711 23.75H10.5722C11.3229 23.75 12.0466 23.4066 12.6088 22.7805C12.91 22.4479 13.4235 22.4208 13.7561 22.7209C14.0897 23.021 14.1168 23.5355 13.8167 23.8681C12.9414 24.8399 11.7898 25.375 10.5722 25.375H10.57C9.35558 25.374 8.20617 24.8388 7.33408 23.867C7.034 23.5345 7.06108 23.0199 7.39475 22.7209C7.72842 22.4197 8.24192 22.4468 8.542 22.7815ZM10.625 2.08337C15.4404 2.08337 18.6753 5.83387 18.6753 9.33629C18.6753 11.1379 19.1335 11.9016 19.6199 12.712C20.101 13.5115 20.6459 14.4193 20.6459 16.1353C20.2678 20.5195 15.6907 20.877 10.625 20.877C5.55937 20.877 0.981201 20.5195 0.607436 16.2046C0.604201 14.4193 1.14912 13.5115 1.63012 12.712L1.79992 12.4261C2.21801 11.7076 2.57478 10.9259 2.57478 9.33629C2.57478 5.83387 5.80962 2.08337 10.625 2.08337ZM10.625 3.70837C6.83878 3.70837 4.19978 6.67454 4.19978 9.33629C4.19978 11.5885 3.5747 12.6296 3.0222 13.5483C2.57912 14.286 2.2292 14.8689 2.2292 16.1353C2.41012 18.1785 3.75887 19.252 10.625 19.252C17.4533 19.252 18.8443 18.1308 19.0241 16.0649C19.0209 14.8689 18.6709 14.286 18.2279 13.5483C17.6754 12.6296 17.0503 11.5885 17.0503 9.33629C17.0503 6.67454 14.4113 3.70837 10.625 3.70837Z" fill="#878790"/>
<circle cx="17.3955" cy="5.33337" r="4.25" fill="#F74A4A" stroke="#00092D" stroke-width="2"/>
</svg>
