<svg width="15" height="17" viewBox="0 0 15 17" fill="none" xmlns="http://www.w3.org/2000/svg">
<path fill-rule="evenodd" clip-rule="evenodd" d="M3 0H10.1487C10.5939 0 11.0161 0.197735 11.3011 0.539723L14.6523 4.56126C14.877 4.83083 15 5.17063 15 5.52154V13.5C15 15.1569 13.6569 16.5 12 16.5H3C1.34315 16.5 0 15.1569 0 13.5V3C0 1.34315 1.34315 0 3 0ZM13.5001 13.4999V5.99986H11.2501C10.4217 5.99986 9.75009 5.32829 9.75009 4.49986V1.49986H3.00009C2.17166 1.49986 1.50009 2.17144 1.50009 2.99986V13.4999C1.50009 14.3283 2.17166 14.9999 3.00009 14.9999H12.0001C12.8285 14.9999 13.5001 14.3283 13.5001 13.4999ZM12.6487 4.50012L11.25 2.82166V4.50012H12.6487ZM4.5 9.75005C4.08579 9.75005 3.75 9.41426 3.75 9.00005C3.75 8.58583 4.08579 8.25005 4.5 8.25005H10.5C10.9142 8.25005 11.25 8.58583 11.25 9.00005C11.25 9.41426 10.9142 9.75005 10.5 9.75005H4.5ZM4.5 12.75C4.08579 12.75 3.75 12.4142 3.75 12C3.75 11.5858 4.08579 11.25 4.5 11.25H9C9.41421 11.25 9.75 11.5858 9.75 12C9.75 12.4142 9.41421 12.75 9 12.75H4.5ZM4.5 6.74986C4.08579 6.74986 3.75 6.41408 3.75 5.99986C3.75 5.58565 4.08579 5.24986 4.5 5.24986H6.75C7.16421 5.24986 7.5 5.58565 7.5 5.99986C7.5 6.41408 7.16421 6.74986 6.75 6.74986H4.5Z" fill="#D9D9D9"/>
</svg>
