<svg width="18" height="20" viewBox="0 0 18 20" fill="none" xmlns="http://www.w3.org/2000/svg">
<path fill-rule="evenodd" clip-rule="evenodd" d="M6.38486 2.10516C6.64521 0.878256 7.73623 0 9 0C10.2638 0 11.3548 0.878256 11.6151 2.10516L11.6658 2.34411C12.6168 2.67391 13.499 3.17717 14.2647 3.83094L14.4967 3.75568C15.6978 3.36592 17.01 3.86418 17.6419 4.95C18.2737 6.03582 18.0526 7.41234 17.1118 8.24948L16.9301 8.41113C17.118 9.39588 17.1162 10.4055 16.9286 11.3875L17.1118 11.5505C18.0526 12.3877 18.2737 13.7642 17.6419 14.85C17.01 15.9358 15.6978 16.4341 14.4967 16.0443L14.264 15.9688C13.8849 16.2919 13.4739 16.5811 13.0345 16.8328C12.595 17.0845 12.1371 17.293 11.6656 17.4572L11.6151 17.6948C11.3548 18.9217 10.2638 19.8 9 19.8C7.73623 19.8 6.64521 18.9217 6.38486 17.6948L6.33416 17.4559C5.38316 17.1261 4.50096 16.6228 3.73527 15.9691L3.50334 16.0443C2.30218 16.4341 0.990033 15.9358 0.358146 14.85C-0.27374 13.7642 -0.052605 12.3877 0.888203 11.5505L1.06986 11.3889C0.882022 10.4041 0.883817 9.39451 1.07143 8.41253L0.888203 8.24948C-0.052605 7.41234 -0.27374 6.03582 0.358146 4.95C0.990033 3.86418 2.30218 3.36592 3.50334 3.75568L3.73599 3.83117C4.11513 3.50813 4.52609 3.21894 4.96553 2.96724C5.40496 2.71553 5.86288 2.50703 6.33444 2.3428L6.38486 2.10516ZM9.00006 1.7998C8.59426 1.7998 8.24393 2.08182 8.16033 2.47578L8.00043 3.22931C7.93039 3.55936 7.68022 3.82286 7.35232 3.91194C6.83926 4.05132 6.34306 4.2565 5.87275 4.52589C5.40245 4.79528 4.97524 5.11902 4.59704 5.49015C4.35533 5.72733 4.00024 5.81053 3.67711 5.70568L2.9394 5.4663C2.5537 5.34115 2.13236 5.50114 1.92946 5.8498C1.72655 6.19847 1.79756 6.64048 2.09966 6.90929L2.67894 7.42474C2.93217 7.65007 3.03706 7.997 2.95063 8.32341C2.67717 9.35619 2.67427 10.4424 2.94897 11.4769C3.03568 11.8035 2.93083 12.1507 2.67744 12.3762L2.09966 12.8903C1.79756 13.1591 1.72655 13.6011 1.92946 13.9498C2.13236 14.2985 2.5537 14.4585 2.9394 14.3333L3.67706 14.0939C4.00058 13.989 4.35611 14.0725 4.59781 14.3103C5.36351 15.0636 6.31315 15.6042 7.35141 15.8856C7.67954 15.9746 7.92995 16.2382 8.00002 16.5684L8.16033 17.3238C8.24393 17.7178 8.59426 17.9998 9.00006 17.9998C9.40587 17.9998 9.7562 17.7178 9.8398 17.3238L9.9997 16.5703C10.0697 16.2402 10.3199 15.9767 10.6478 15.8877C11.1609 15.7483 11.6571 15.5431 12.1274 15.2737C12.5977 15.0043 13.0249 14.6806 13.4031 14.3095C13.6448 14.0723 13.9999 13.9891 14.323 14.0939L15.0607 14.3333C15.4464 14.4585 15.8678 14.2985 16.0707 13.9498C16.2736 13.6011 16.2026 13.1591 15.9005 12.8903L15.3212 12.3749C15.068 12.1495 14.9631 11.8026 15.0495 11.4762C15.323 10.4434 15.3259 9.35719 15.0512 8.32267C14.9644 7.99611 15.0693 7.64888 15.3227 7.4234L15.9005 6.90929C16.2026 6.64048 16.2736 6.19847 16.0707 5.8498C15.8678 5.50114 15.4464 5.34115 15.0607 5.4663L14.3231 5.70566C13.9995 5.81064 13.644 5.72711 13.4023 5.48933C12.6366 4.73605 11.687 4.19542 10.6487 3.91399C10.3206 3.82505 10.0702 3.56146 10.0001 3.23122L9.8398 2.47578C9.7562 2.08182 9.40587 1.7998 9.00006 1.7998ZM9.00145 13.1687C10.8209 13.1687 12.2959 11.7054 12.2959 9.90026C12.2959 8.09516 10.8209 6.63184 9.00145 6.63184C7.18199 6.63184 5.70703 8.09516 5.70703 9.90026C5.70703 11.7054 7.18199 13.1687 9.00145 13.1687ZM9.00159 11.3685C8.18415 11.3685 7.52148 10.711 7.52148 9.90006C7.52148 9.08908 8.18415 8.43164 9.00159 8.43164C9.81903 8.43164 10.4817 9.08908 10.4817 9.90006C10.4817 10.711 9.81903 11.3685 9.00159 11.3685Z" fill="#D9D9D9"/>
</svg>
