<svg width="34" height="26" viewBox="0 0 34 26" fill="none" xmlns="http://www.w3.org/2000/svg">
<path d="M5.09282 16.3271C5.16657 16.3271 5.24133 16.3198 5.31623 16.3053C5.9514 16.1822 6.36676 15.5664 6.24402 14.9295C6.11765 14.2728 6.05338 13.5958 6.05338 12.9176C6.05338 9.54054 7.64146 6.5284 10.108 4.59216C10.3185 5.16753 10.6791 5.77479 11.2902 6.00432C11.3895 6.04178 11.4824 6.07942 11.572 6.11558C12.0507 6.3088 12.5457 6.50892 13.3776 6.50892C13.3799 6.50892 13.3822 6.50892 13.3845 6.50892C13.5198 6.53568 13.8162 6.81321 14.0273 7.09798C14.1363 7.6748 14.2652 8.47645 14.2652 8.77996C14.2652 9.25627 14.3521 9.7838 14.4287 10.2494C14.4627 10.4547 14.4958 10.6542 14.5187 10.837C14.5755 11.293 14.8719 11.6474 15.2919 11.7617C15.3939 11.7896 15.4913 11.803 15.5855 11.803C16.2383 11.803 16.7313 11.1611 17.4319 10.2487C17.5651 10.0747 17.7433 9.84272 17.824 9.75251C17.8692 9.7223 17.9261 9.68945 17.9883 9.65161C18.4667 9.36147 19.2678 8.876 19.3898 8.02088C19.4307 7.73457 19.4229 7.29841 19.4069 6.60994C19.3982 6.23818 19.3846 5.65867 19.4008 5.36052C19.5989 5.19463 20.0158 4.91308 20.4134 4.67895L22.4098 4.11593C24.4425 5.46729 26.0066 7.51152 26.7168 9.959C26.8975 10.5821 27.5472 10.9395 28.1684 10.7587C28.7895 10.5775 29.1465 9.92572 28.9658 9.303C27.3766 3.82552 22.2891 0 16.5942 0C9.49032 0 3.71094 5.79496 3.71094 12.9177C3.71094 13.745 3.78947 14.5718 3.94425 15.3753C4.05238 15.9368 4.54287 16.3271 5.09282 16.3271ZM19.7412 2.83614C19.6737 2.85719 19.6087 2.8851 19.5474 2.92006C17.8487 3.891 17.6499 4.3895 17.5752 4.57682C17.4305 4.93903 17.4274 5.46138 17.4555 6.65579C17.4627 6.97192 17.4734 7.42377 17.4646 7.64586C17.3525 7.74983 17.1056 7.89969 16.9781 7.97691C16.8332 8.06481 16.7071 8.14433 16.6195 8.21007C16.4939 8.30412 16.3784 8.42833 16.2135 8.63286C16.1817 7.94324 15.9526 6.76509 15.904 6.52084C15.8809 6.40503 15.8369 6.29434 15.7743 6.19402C15.6035 5.91994 14.6861 4.55274 13.4003 4.55274C12.9268 4.55274 12.7045 4.46311 12.3011 4.30006C12.2287 4.27081 12.1543 4.24079 12.0765 4.21062C11.9929 4.08088 11.8882 3.78258 11.8234 3.49474C13.2567 2.76219 14.8782 2.3486 16.5942 2.3486C17.6802 2.34856 18.7391 2.51867 19.7412 2.83614Z" fill="#878790"/>
<path d="M33.3477 9.07079C33.143 8.18661 32.3782 7.54403 31.0754 7.16062C30.5573 7.00773 30.0157 7.30511 29.864 7.82386C29.7123 8.3426 30.0085 8.88619 30.5257 9.03832C31.314 9.27034 31.4444 9.5111 31.4456 9.51117C31.5068 10.3199 27.2692 13.4706 17.3561 15.7799C7.44015 18.0904 2.2517 17.1335 1.95358 16.3858C1.95339 16.3828 1.96635 16.0536 2.75171 15.3912C3.16424 15.0433 3.21724 14.4259 2.87028 14.0123C2.52314 13.5983 1.90762 13.5448 1.49509 13.8934C0.316438 14.8877 -0.169081 15.8747 0.0518841 16.8266C0.383886 18.2589 2.11016 19.0276 5.31929 19.1664C5.33103 19.1912 5.34334 19.2159 5.35699 19.2402C7.63802 23.3079 11.9439 25.8351 16.594 25.8351C23.4628 25.8351 29.1013 20.4668 29.4587 13.6021C32.4134 12.0206 33.6869 10.5352 33.3477 9.07079ZM16.1203 23.4754L17.0393 22.7127L18.6665 22.5242C18.9854 22.4871 19.2658 22.2956 19.4166 22.0112L19.7679 21.348L20.1007 22.0334L19.8762 22.9662C18.8426 23.304 17.7392 23.4864 16.594 23.4864C16.4355 23.4864 16.2777 23.4825 16.1203 23.4754ZM22.1067 21.9334C22.1085 21.782 22.0762 21.6313 22.0093 21.4933L20.6839 18.7616C20.5231 18.4306 20.1907 18.218 19.8235 18.2112C19.4475 18.2089 19.1165 18.4053 18.9442 18.7307L17.9331 20.6389L16.528 20.8018C16.3405 20.8236 16.1632 20.8993 16.0176 21.02L13.8822 22.7922C13.7872 22.871 13.7112 22.9641 13.6541 23.0657C11.4315 22.4166 9.46088 21.0444 8.07693 19.1455C10.9428 19.0005 14.3198 18.4967 17.7978 17.6867C21.1914 16.896 24.3705 15.8863 26.9717 14.7819C26.4363 17.8187 24.6187 20.39 22.1067 21.9334Z" fill="#878790"/>
</svg>
