<svg width="22" height="20" viewBox="0 0 22 20" fill="none" xmlns="http://www.w3.org/2000/svg">
<path d="M15.3857 0H6.60669C2.79335 0 0.52002 2.17 0.52002 5.81V14.18C0.52002 17.83 2.79335 20 6.60669 20H15.3753C19.1886 20 21.4619 17.83 21.4619 14.19V5.81C21.4724 2.17 19.1991 0 15.3857 0ZM14.5162 12.3C14.82 12.59 14.82 13.07 14.5162 13.36C14.3591 13.51 14.16 13.58 13.961 13.58C13.7619 13.58 13.5629 13.51 13.4057 13.36L10.9962 11.06L8.58669 13.36C8.42954 13.51 8.2305 13.58 8.03145 13.58C7.8324 13.58 7.63335 13.51 7.47621 13.36C7.1724 13.07 7.1724 12.59 7.47621 12.3L9.88573 10L7.47621 7.7C7.1724 7.41 7.1724 6.93 7.47621 6.64C7.78002 6.35 8.28288 6.35 8.58669 6.64L10.9962 8.94L13.4057 6.64C13.7095 6.35 14.2124 6.35 14.5162 6.64C14.82 6.93 14.82 7.41 14.5162 7.7L12.1067 10L14.5162 12.3Z" fill="#00092D"/>
</svg>
