<svg width="18" height="18" viewBox="0 0 18 18" fill="none" xmlns="http://www.w3.org/2000/svg">
<path d="M4.11853 7.81466C3.1344 6.83055 3.1344 5.23497 4.11853 4.25085C5.10264 3.26672 6.69822 3.26672 7.68234 4.25085L13.2826 9.85111C14.2667 10.8353 14.2667 12.4309 13.2826 13.415C12.2985 14.3991 10.703 14.3991 9.71879 13.415L6.79139 10.4875C6.43992 10.1361 6.43992 9.56621 6.79139 9.21477C7.14286 8.86327 7.71272 8.86327 8.06415 9.21477L10.7371 11.8876C11.0182 12.1688 11.4741 12.1688 11.7553 11.8876C12.0365 11.6064 12.0365 11.1506 11.7553 10.8694L9.08245 8.19648C8.16862 7.28268 6.68698 7.28268 5.77315 8.19648C4.85933 9.1103 4.85933 10.5919 5.77315 11.5057L8.70056 14.4332C10.2471 15.9797 12.7544 15.9797 14.3009 14.4332C15.8474 12.8867 15.8474 10.3794 14.3009 8.83288L8.70056 3.23261C7.1541 1.68614 4.64677 1.68614 3.10029 3.23261C1.55381 4.77909 1.55381 7.28642 3.10029 8.83288L3.35482 9.08741C3.636 9.36864 4.0919 9.36864 4.37308 9.08748C4.65426 8.80632 4.65426 8.35041 4.37308 8.06925L4.11853 7.81466Z" fill="#788292"/>
</svg>
