<svg width="19" height="18" viewBox="0 0 19 18" fill="none" xmlns="http://www.w3.org/2000/svg">
<path d="M11.1157 1.63306C11.7355 1.63306 12.2858 2.02968 12.4818 2.61769L12.8736 3.79306H15.2346C15.6323 3.79306 15.9546 4.11542 15.9546 4.51306C15.9546 4.91069 15.6323 5.23305 15.2346 5.23306L15.2328 5.28436L14.6083 14.0269C14.5276 15.1573 13.5871 16.0331 12.4539 16.0331H6.49545C5.36222 16.0331 4.42167 15.1573 4.34093 14.0269L3.71646 5.28436C3.71523 5.26715 3.71462 5.25005 3.7146 5.23306C3.31697 5.23305 2.99463 4.91069 2.99463 4.51306C2.99463 4.11542 3.31699 3.79306 3.71463 3.79306H6.07569L6.46747 2.61769C6.66348 2.02968 7.21376 1.63306 7.83358 1.63306H11.1157ZM13.7928 5.23306H5.15647L5.77727 13.9243C5.80419 14.3012 6.1177 14.5931 6.49545 14.5931H12.4539C12.8316 14.5931 13.1451 14.3012 13.172 13.9243L13.7928 5.23306ZM8.03463 7.39306C8.40389 7.39306 8.7082 7.671 8.74979 8.02909L8.75464 8.11306V11.7131C8.75464 12.1107 8.43229 12.4331 8.03463 12.4331C7.66539 12.4331 7.36107 12.1551 7.31948 11.797L7.31463 11.7131V8.11306C7.31463 7.71541 7.63699 7.39306 8.03463 7.39306ZM10.9146 7.39306C11.3123 7.39306 11.6346 7.71541 11.6346 8.11306V11.7131C11.6346 12.1107 11.3123 12.4331 10.9146 12.4331C10.517 12.4331 10.1946 12.1107 10.1946 11.7131V8.11306C10.1946 7.71541 10.517 7.39306 10.9146 7.39306ZM11.1157 3.07306H7.83358L7.59358 3.79306H11.3557L11.1157 3.07306Z" fill="#788292"/>
</svg>
