<svg width="18" height="18" viewBox="0 0 18 18" fill="none" xmlns="http://www.w3.org/2000/svg">
<path d="M9.08819 1.63306C13.0646 1.63306 16.2882 4.85661 16.2882 8.83306C16.2882 12.8095 13.0646 16.0331 9.08819 16.0331C5.11173 16.0331 1.88818 12.8095 1.88818 8.83306C1.88818 4.85661 5.11173 1.63306 9.08819 1.63306ZM9.08819 3.07306C5.90703 3.07306 3.32819 5.6519 3.32819 8.83306C3.32819 12.0142 5.90703 14.5931 9.08819 14.5931C12.2694 14.5931 14.8482 12.0142 14.8482 8.83306C14.8482 5.6519 12.2694 3.07306 9.08819 3.07306ZM11.3682 8.83306C12.0972 8.83306 12.6882 9.42404 12.6882 10.153V10.2731C12.6882 12.2613 11.0764 13.8731 9.08819 13.8731C7.09997 13.8731 5.48819 12.2613 5.48819 10.2731V10.153C5.48819 9.42404 6.07917 8.83306 6.80819 8.83306H11.3682ZM11.2482 10.2731H6.92819C6.92819 11.466 7.89522 12.4331 9.08819 12.4331C10.2812 12.4331 11.2482 11.466 11.2482 10.2731ZM6.92819 5.23306C7.29743 5.23306 7.60175 5.51101 7.64335 5.86909L7.64819 5.95306V7.39306C7.64819 7.79072 7.32583 8.11306 6.92819 8.11306C6.55895 8.11306 6.25462 7.83512 6.21303 7.47703L6.20819 7.39306V5.95306C6.20819 5.55542 6.53055 5.23306 6.92819 5.23306ZM10.7391 5.44394C11.0202 5.16277 11.4761 5.16277 11.7573 5.44394C12.0168 5.70349 12.0368 6.1119 11.8172 6.39435L11.7573 6.46218L11.5464 6.67306L11.7573 6.88394C12.0385 7.16512 12.0385 7.62101 11.7573 7.90217C11.4978 8.16171 11.0893 8.18167 10.8069 7.96207L10.7391 7.90217L10.0191 7.18218C9.75955 6.92263 9.73958 6.51423 9.95919 6.23177L10.0191 6.16394L10.7391 5.44394Z" fill="#788292"/>
</svg>
