<svg width="17" height="17" viewBox="0 0 17 17" fill="none" xmlns="http://www.w3.org/2000/svg">
<path d="M1.81976 13.5161C2.79755 15.3686 4.75001 16.0342 8.19728 16.0342C12.9606 16.0342 14.8699 14.7633 15.2974 10.8466M1.81976 13.5161C1.23644 12.411 1 10.8835 1 8.82291C1 3.30836 2.69348 1.61157 8.19728 1.61157C13.7011 1.61157 15.3946 3.30836 15.3946 8.82291C15.3946 9.56485 15.3639 10.2377 15.2974 10.8466M1.81976 13.5161L4.4596 10.8711C5.12094 10.2085 6.19319 10.2085 6.85454 10.8711L6.99981 11.0167C7.66116 11.6793 8.73341 11.6793 9.39475 11.0167L11.2335 9.17433C11.8949 8.51169 12.9671 8.51169 13.6284 9.17433L15.2974 10.8466M7.0889 6.14708C7.0889 7.01159 6.38865 7.71321 5.52582 7.71321C4.66384 7.71321 3.96359 7.01159 3.96359 6.14708C3.96359 5.28257 4.66384 4.58095 5.52582 4.58095C6.38865 4.58095 7.0889 5.28257 7.0889 6.14708Z" stroke="#788292" stroke-width="1.65455" stroke-linecap="round" stroke-linejoin="round"/>
</svg>
