<svg width="21" height="19" viewBox="0 0 21 19" fill="none" xmlns="http://www.w3.org/2000/svg">
<path d="M18.25 0.378906H3.19494C1.89634 0.378906 0.839844 1.50301 0.839844 2.88472V12.2991C0.839844 13.6808 1.89634 14.8049 3.19494 14.8049H4.44953V18.3412C4.44953 18.6456 4.77968 18.7861 4.97778 18.5753L8.78555 14.8049H18.272C19.5706 14.8049 20.6271 13.6808 20.6271 12.2991V2.88472C20.6051 1.50301 19.5486 0.378906 18.25 0.378906ZM12.8795 10.8705C12.8795 11.0579 12.7254 11.2218 12.5493 11.2218H4.69164C4.51556 11.2218 4.36149 11.0579 4.36149 10.8705V10.7066C4.36149 10.5193 4.51556 10.3553 4.69164 10.3553H12.5493C12.7254 10.3553 12.8795 10.5193 12.8795 10.7066V10.8705ZM16.6872 8.22422H4.77968C4.55958 8.22422 4.36149 8.03686 4.36149 7.77926C4.36149 7.52165 4.53757 7.3343 4.77968 7.3343H16.6872C16.9073 7.3343 17.1054 7.52165 17.1054 7.77926C17.1054 8.03686 16.9073 8.22422 16.6872 8.22422ZM16.6872 5.2266H4.77968C4.55958 5.2266 4.36149 5.03925 4.36149 4.78165C4.36149 4.52404 4.53757 4.33669 4.77968 4.33669H16.6872C16.9073 4.33669 17.1054 4.52404 17.1054 4.78165C17.1054 5.03925 16.9073 5.2266 16.6872 5.2266Z" fill="#788292"/>
</svg>
