<svg width="18" height="21" viewBox="0 0 18 21" fill="none" xmlns="http://www.w3.org/2000/svg">
<path d="M11.7091 8.10018C11.7091 8.10018 13.0957 6.29693 12.9637 3.74428C12.8096 1.1682 11.643 0.770084 10.9167 0.86376C10.1904 0.934016 10.1023 3.90821 10.1023 3.90821C10.1023 3.90821 6.66873 6.27351 6.36059 10.5592C6.05244 14.8448 6.36059 19.1539 6.36059 19.1539H15.847C15.869 19.1539 15.891 19.1539 15.913 19.1539C16.7274 19.1539 17.96 18.4045 17.0136 16.7886C18.048 15.9923 17.6298 14.3998 17.1896 13.9315C17.982 13.4631 18.2021 11.8238 17.1896 11.051C18.2241 10.0439 18.1581 8.4983 16.9255 8.10018C15.6709 7.70206 11.7091 8.10018 11.7091 8.10018Z" fill="#52AF29"/>
<path d="M4.75422 20.2311H0.220103C0.110051 20.2311 0 20.1374 0 19.9969V10.2313C0 10.0907 0.110051 9.99707 0.220103 9.99707H4.75422C4.86427 9.99707 4.97432 10.0907 4.97432 10.2313V19.9735C4.97432 20.114 4.88628 20.2311 4.75422 20.2311Z" fill="#52AF29"/>
</svg>
