<svg width="18" height="21" viewBox="0 0 18 21" fill="none" xmlns="http://www.w3.org/2000/svg">
<path d="M14.8349 14.6583C14.0426 14.6583 13.3162 15.0096 12.788 15.5483L5.87674 10.7708C5.87674 10.7006 5.87674 10.6069 5.87674 10.5366C5.87674 10.4664 5.87674 10.4195 5.87674 10.3493L12.942 5.66552C13.4483 6.13389 14.1306 6.41492 14.8569 6.41492C16.4857 6.41492 17.8063 5.00979 17.8063 3.27679C17.8063 1.5438 16.4857 0.138672 14.8569 0.138672C13.2282 0.138672 11.9076 1.5438 11.9076 3.27679C11.9076 3.5344 11.9296 3.76859 11.9956 4.00278L5.19442 8.52261C4.64416 7.84347 3.8518 7.39851 2.94938 7.39851C1.32062 7.39851 0 8.80364 0 10.5366C0 12.2696 1.32062 13.6748 2.94938 13.6748C3.82979 13.6748 4.62216 13.2532 5.17242 12.5975L11.9516 17.3047C11.9296 17.4686 11.9076 17.6325 11.9076 17.8199C11.9076 19.5529 13.2282 20.958 14.8569 20.958C16.4857 20.958 17.8063 19.5529 17.8063 17.8199C17.7843 16.0635 16.4637 14.6583 14.8349 14.6583Z" fill="#52AF29"/>
</svg>
