<svg width="189" height="76" viewBox="0 0 189 76" fill="none" xmlns="http://www.w3.org/2000/svg">
<path d="M70.4941 24.6796C70.8233 24.6796 71.0976 24.7881 71.3092 25.0052C71.5287 25.2223 71.6305 25.4937 71.6305 25.8193C71.6305 26.145 71.5208 26.4163 71.3092 26.6334C71.0898 26.8505 70.8233 26.9591 70.4941 26.9591H62.9937V33.2782H68.3467C68.6758 33.2782 68.9501 33.3867 69.1696 33.6038C69.389 33.8209 69.4988 34.0923 69.4988 34.4024C69.4988 34.7126 69.389 34.9917 69.1696 35.1933C68.9501 35.3949 68.6758 35.4957 68.3467 35.4957H62.9937V43.0708C62.9937 43.3965 62.8839 43.6679 62.6567 43.8772C62.4294 44.0943 62.1551 44.1951 61.8416 44.1951C61.5281 44.1951 61.2381 44.0865 61.0186 43.8694C60.7992 43.6523 60.6895 43.381 60.6895 43.0708V25.7573C60.6895 25.6332 60.713 25.5092 60.76 25.3851C60.807 25.2611 60.8776 25.1448 60.9716 25.0362C61.0657 24.9277 61.1832 24.8424 61.3243 24.7726C61.4654 24.7028 61.6456 24.6641 61.8494 24.6641H70.5098L70.4941 24.6796Z" fill="#F5F5F5"/>
<path d="M73.8091 32.0069C74.4988 31.3323 75.2982 30.8051 76.2074 30.4174C77.1165 30.0297 78.0962 29.8359 79.1308 29.8359H79.2248C79.6088 29.8359 79.8988 29.9444 80.1104 30.1615C80.322 30.3786 80.4239 30.65 80.4239 30.9756C80.4239 31.3013 80.3064 31.5727 80.0712 31.782C79.8361 31.9913 79.554 32.0999 79.2248 32.0999H79.1308C78.4019 32.0999 77.7122 32.2395 77.0695 32.5186C76.4268 32.7977 75.8625 33.1776 75.3766 33.6583C74.8907 34.1391 74.5067 34.7051 74.2245 35.3564C73.9424 36.0077 73.8013 36.6977 73.8013 37.4343V43.0711C73.8013 43.389 73.6916 43.6603 73.4721 43.8774C73.2527 44.1023 72.9784 44.2108 72.6492 44.2108C72.32 44.2108 72.0614 44.1023 71.8341 43.8774C71.6068 43.6526 71.4971 43.3812 71.4971 43.0711V30.9834C71.4971 30.6577 71.6068 30.3864 71.8341 30.1615C72.0614 29.9367 72.3357 29.8281 72.6648 29.8281C72.994 29.8281 73.2683 29.9367 73.4799 30.1615C73.6994 30.3864 73.8013 30.6577 73.8013 30.9834V32.0069H73.8091Z" fill="#F5F5F5"/>
<path d="M82.4933 30.1538C82.7127 29.9367 82.987 29.8281 83.3162 29.8281C83.6454 29.8281 83.904 29.9367 84.1313 30.1538C84.3586 30.3709 84.4683 30.6422 84.4683 30.9679V37.2327C84.4918 38.7136 84.8288 39.8689 85.495 40.6908C86.1612 41.5126 87.0939 41.9236 88.293 41.9236C88.8808 41.9236 89.4294 41.8073 89.9389 41.5824C90.4483 41.3576 90.895 41.0397 91.2712 40.6442C91.6553 40.2488 91.9609 39.7758 92.1882 39.2253C92.4155 38.6749 92.5487 38.0778 92.5644 37.442V30.9911C92.5644 30.6655 92.6741 30.3941 92.9014 30.177C93.1287 29.9599 93.3952 29.8514 93.7165 29.8514C94.0379 29.8514 94.3043 29.9599 94.5395 30.177C94.7667 30.3941 94.8843 30.6655 94.8843 30.9911V43.0788C94.8843 43.3967 94.7667 43.6681 94.5395 43.8852C94.3122 44.11 94.03 44.2186 93.7008 44.2186C93.3717 44.2186 93.1052 44.11 92.8858 43.8774C92.6663 43.6448 92.5644 43.3812 92.5644 43.0633V41.9236C91.9688 42.6214 91.2791 43.1719 90.5032 43.5828C89.7273 43.9937 88.9043 44.1953 88.0422 44.1953C87.1801 44.1953 86.3336 44.0248 85.6126 43.6914C84.8915 43.358 84.2645 42.8772 83.7551 42.257C83.2378 41.6367 82.846 40.8923 82.5638 40.0395C82.2895 39.1788 82.1484 38.2174 82.1484 37.1629V30.9524C82.1484 30.6267 82.2582 30.3554 82.4776 30.1383L82.4933 30.1538Z" fill="#F5F5F5"/>
<path d="M98.1526 25.5947C98.4113 25.3388 98.7326 25.207 99.1166 25.207C99.5007 25.207 99.822 25.3388 100.081 25.5947C100.339 25.8583 100.473 26.1762 100.473 26.5484C100.473 26.9206 100.339 27.2307 100.081 27.4943C99.8142 27.7579 99.4928 27.8897 99.1166 27.8897C98.7404 27.8897 98.4113 27.7579 98.1526 27.4943C97.894 27.2307 97.7607 26.9128 97.7607 26.5484C97.7607 26.184 97.894 25.8506 98.1526 25.5947ZM100.277 43.0788C100.277 43.3967 100.167 43.6681 99.9474 43.8852C99.7279 44.11 99.4536 44.2186 99.1401 44.2186C98.8266 44.2186 98.5445 44.11 98.3172 43.8852C98.0821 43.6603 97.9724 43.389 97.9724 43.0788V30.9911C97.9724 30.6655 98.0821 30.3941 98.3094 30.1693C98.5366 29.9444 98.811 29.8359 99.1401 29.8359C99.4693 29.8359 99.7436 29.9444 99.9552 30.1693C100.167 30.3941 100.277 30.6655 100.277 30.9911V43.0788Z" fill="#F5F5F5"/>
<path d="M107.017 29.859H108.819C109.149 29.859 109.423 29.9675 109.642 30.1846C109.862 30.4017 109.972 30.6731 109.972 30.9987C109.972 31.3244 109.862 31.5957 109.642 31.8128C109.423 32.0299 109.149 32.1385 108.819 32.1385H107.017V43.0864C107.017 43.4043 106.907 43.6679 106.68 43.885C106.453 44.1021 106.178 44.2107 105.865 44.2107C105.551 44.2107 105.261 44.1021 105.034 43.885C104.807 43.6679 104.697 43.3965 104.697 43.0864V32.1385H103.216C102.886 32.1385 102.612 32.0299 102.385 31.8051C102.158 31.5802 102.048 31.3089 102.048 30.9987C102.048 30.6886 102.158 30.4017 102.385 30.1846C102.612 29.9675 102.886 29.859 103.216 29.859H104.697V25.8116C104.697 25.486 104.807 25.2146 105.034 25.0053C105.261 24.7882 105.536 24.6874 105.865 24.6874C106.194 24.6874 106.453 24.7959 106.68 25.0053C106.907 25.2224 107.017 25.486 107.017 25.8116V29.859Z" fill="#F5F5F5"/>
<path d="M117.159 40.4192L121.571 30.5413C121.704 30.2466 121.916 30.0373 122.214 29.9132C122.504 29.7892 122.802 29.8047 123.099 29.9442C123.389 30.076 123.593 30.2931 123.711 30.5878C123.828 30.8824 123.82 31.177 123.687 31.4717L115.818 48.8627C115.677 49.1574 115.458 49.3667 115.16 49.483C114.87 49.5993 114.572 49.5916 114.274 49.4598C113.977 49.3202 113.789 49.1031 113.71 48.8162C113.632 48.5293 113.663 48.2425 113.812 47.9478L115.96 43.1407L110.701 31.4794C110.63 31.3244 110.591 31.177 110.583 31.022C110.583 30.8669 110.607 30.7273 110.661 30.5878C110.716 30.4482 110.795 30.3242 110.904 30.2079C111.006 30.0915 111.132 29.9985 111.273 29.9365C111.571 29.8047 111.868 29.7969 112.158 29.921C112.448 30.045 112.668 30.2544 112.801 30.549L117.166 40.4269L117.159 40.4192Z" fill="#F5F5F5"/>
<path d="M147.411 27.9518C147.411 28.2542 147.301 28.5178 147.074 28.7427C146.847 28.9753 146.573 29.0916 146.259 29.0916C145.946 29.0916 145.671 28.9831 145.444 28.7737C144.676 28.0139 143.814 27.4401 142.865 27.0679C141.917 26.6958 140.945 26.5097 139.95 26.5097C138.892 26.5097 137.889 26.7113 136.956 27.1067C136.023 27.5021 135.208 28.0449 134.511 28.7349C133.813 29.425 133.272 30.2314 132.865 31.154C132.457 32.0767 132.261 33.0691 132.261 34.1314C132.261 35.1936 132.457 36.1318 132.841 37.0544C133.225 37.9771 133.758 38.7835 134.448 39.4813C135.13 40.1791 135.937 40.7373 136.87 41.156C137.802 41.5747 138.813 41.7841 139.919 41.7841C140.93 41.7841 141.894 41.6057 142.818 41.2568C143.743 40.9079 144.605 40.3419 145.413 39.5666C145.632 39.3495 145.898 39.2487 146.22 39.2487C146.541 39.2487 146.815 39.3495 147.027 39.5511C147.262 39.7759 147.38 40.0473 147.372 40.3652C147.372 40.6831 147.254 40.9544 147.043 41.1638C146.047 42.1485 144.934 42.8851 143.704 43.358C142.474 43.831 141.204 44.0713 139.903 44.0713C138.523 44.0713 137.23 43.8077 136.023 43.296C134.816 42.7843 133.758 42.0709 132.849 41.1715C131.94 40.2721 131.235 39.2254 130.709 38.0159C130.192 36.8063 129.934 35.527 129.934 34.1624C129.934 33.2862 130.043 32.4334 130.271 31.6037C130.498 30.7741 130.819 29.991 131.235 29.2544C131.65 28.5178 132.159 27.8355 132.755 27.2153C133.351 26.595 134.025 26.06 134.769 25.6103C135.514 25.1606 136.321 24.8117 137.191 24.5636C138.061 24.3155 138.986 24.1914 139.958 24.1914C141.251 24.1914 142.513 24.4395 143.735 24.928C144.958 25.4242 146.071 26.1608 147.066 27.1455C147.294 27.3703 147.403 27.634 147.403 27.9363L147.411 27.9518Z" fill="#52AF29"/>
<path d="M151.95 31.7977C152.545 31.0922 153.235 30.5417 154.011 30.123C154.787 29.712 155.61 29.5027 156.488 29.5027C157.365 29.5027 158.188 29.6733 158.909 30.0067C159.63 30.3401 160.25 30.8208 160.759 31.4333C161.276 32.0458 161.668 32.7902 161.958 33.643C162.24 34.5037 162.381 35.4574 162.381 36.5041V42.7612C162.381 43.0868 162.272 43.3582 162.044 43.5675C161.817 43.7846 161.543 43.8854 161.214 43.8854C160.884 43.8854 160.626 43.7769 160.406 43.5675C160.187 43.3504 160.077 43.0868 160.077 42.7612V36.4731C160.069 35.7442 159.975 35.0852 159.803 34.5037C159.63 33.9222 159.372 33.4337 159.043 33.0305C158.706 32.6273 158.306 32.3172 157.836 32.1079C157.365 31.8908 156.832 31.79 156.237 31.79C155.641 31.79 155.1 31.9063 154.591 32.1311C154.081 32.3637 153.635 32.6739 153.259 33.077C152.874 33.4802 152.569 33.9532 152.342 34.4959C152.106 35.0387 151.981 35.6279 151.965 36.256V42.7301C151.965 43.048 151.856 43.3116 151.636 43.5365C151.417 43.7613 151.142 43.8699 150.829 43.8699C150.515 43.8699 150.225 43.7613 149.998 43.5365C149.771 43.3116 149.661 43.0403 149.661 42.7301V25.5096C149.661 25.184 149.779 24.9049 150.006 24.68C150.241 24.4474 150.515 24.3389 150.829 24.3389C151.142 24.3389 151.417 24.4552 151.636 24.68C151.856 24.9126 151.965 25.184 151.965 25.5096V31.7822L151.95 31.7977Z" fill="#52AF29"/>
<path d="M164.474 36.7981C164.474 35.7901 164.67 34.8442 165.054 33.9603C165.438 33.0764 165.963 32.3088 166.637 31.6498C167.311 30.9907 168.087 30.4713 168.98 30.0913C169.874 29.7114 170.83 29.5176 171.833 29.5176C172.836 29.5176 173.785 29.7037 174.67 30.0836C175.556 30.4635 176.332 30.9675 176.99 31.6188C177.656 32.2623 178.181 33.0222 178.565 33.8983C178.949 34.7744 179.153 35.7049 179.177 36.7051V42.6985C179.177 43.0241 179.067 43.3033 178.84 43.5359C178.612 43.7685 178.33 43.8848 177.993 43.8848C177.656 43.8848 177.398 43.7685 177.186 43.5359C176.974 43.3033 176.872 43.0241 176.872 42.6985L176.857 41.9387C176.198 42.5744 175.446 43.0862 174.592 43.4816C173.738 43.8693 172.821 44.0631 171.849 44.0631C170.877 44.0631 169.889 43.8693 168.996 43.4894C168.102 43.1094 167.319 42.59 166.652 41.9232C165.986 41.2641 165.453 40.4888 165.069 39.6126C164.685 38.7365 164.489 37.7905 164.489 36.7826L164.474 36.7981ZM166.786 36.7981C166.786 37.4804 166.919 38.1239 167.178 38.721C167.444 39.3257 167.797 39.853 168.251 40.3027C168.706 40.7524 169.239 41.1168 169.85 41.3804C170.461 41.644 171.12 41.7758 171.817 41.7758C172.515 41.7758 173.189 41.644 173.8 41.3804C174.412 41.1168 174.944 40.7524 175.399 40.3027C175.854 39.853 176.206 39.318 176.465 38.721C176.724 38.1162 176.849 37.4804 176.849 36.7981C176.849 36.1158 176.724 35.4567 176.465 34.852C176.206 34.2472 175.854 33.72 175.399 33.2703C174.944 32.8206 174.412 32.4639 173.8 32.208C173.189 31.9444 172.523 31.8204 171.817 31.8204C171.112 31.8204 170.461 31.9522 169.85 32.208C169.239 32.4717 168.706 32.8206 168.251 33.2703C167.797 33.72 167.436 34.2472 167.178 34.852C166.911 35.4567 166.786 36.108 166.786 36.7981Z" fill="#52AF29"/>
<path d="M185.924 29.5261H187.727C188.056 29.5261 188.33 29.6346 188.55 29.8517C188.769 30.0688 188.879 30.3402 188.879 30.6658C188.879 30.9915 188.769 31.2628 188.55 31.4799C188.33 31.697 188.056 31.8056 187.727 31.8056H185.924V42.7535C185.924 43.0714 185.814 43.335 185.587 43.5521C185.36 43.7692 185.085 43.8778 184.772 43.8778C184.458 43.8778 184.161 43.7692 183.941 43.5521C183.714 43.335 183.604 43.0637 183.604 42.7535V31.8056H182.123C181.794 31.8056 181.519 31.697 181.292 31.4722C181.065 31.2473 180.955 30.976 180.955 30.6658C180.955 30.3557 181.065 30.0688 181.292 29.8517C181.519 29.6346 181.794 29.5261 182.123 29.5261H183.604V25.4787C183.604 25.1531 183.714 24.8817 183.941 24.6724C184.168 24.4553 184.443 24.3545 184.772 24.3545C185.101 24.3545 185.36 24.463 185.587 24.6724C185.814 24.8895 185.924 25.1531 185.924 25.4787V29.5261Z" fill="#52AF29"/>
<path d="M52.8281 59.6406C44.6223 65.1456 35.6876 66.3784 26.2278 63.4166C25.0757 63.0522 24.1039 63.091 22.9831 63.5329C17.5126 65.6651 12.0185 67.7198 6.06988 69.9838C7.62954 64.5796 8.98542 59.6562 10.4902 54.7792C10.9448 53.3138 10.8586 52.1896 9.97294 50.887C7.1828 46.7854 5.5918 42.1721 5.341 37.2641C4.69833 24.7887 9.68295 14.9651 20.6554 8.74678C31.4632 2.62152 42.4278 3.24956 52.8438 10.0416L55.5086 6.16487C47.483 0.776194 38.6424 -1.16993 29.1434 0.683152C5.36451 5.33524 -6.5641 30.8054 5.09804 51.8794C5.73287 53.0192 5.85043 54.0039 5.47424 55.2522C3.97728 60.1524 2.59005 65.0914 1.14796 70.0148C0.669876 71.6586 0.591501 73.2325 2.04143 74.4653C3.39731 75.6206 4.85508 75.4423 6.43041 74.8297C11.5796 72.8216 16.7758 70.953 21.9015 68.8983C23.7669 68.154 25.4597 67.9136 27.4113 68.5882C29.6685 69.3713 32.051 69.5806 34.465 69.6116C42.1535 69.7202 49.1994 67.7896 55.5556 63.4709" fill="#52AF29"/>
<path d="M1.97852 25.0756C2.22931 21.6873 2.75442 18.0354 4.61974 15.6551C6.08534 13.7788 7.75472 12.7786 10.7643 12.7863C21.0157 12.8096 31.2671 12.7863 41.5107 12.7863C41.6361 12.7863 41.7615 12.7941 41.879 12.7863C42.4512 12.7553 42.5844 12.8639 42.2631 13.2903C40.3037 15.9265 38.7832 19.8265 35.4366 20.7724C31.6668 21.8346 28.3908 21.5323 24.9579 21.509C20.2006 21.478 15.4354 21.4547 10.6781 21.4702C8.66387 21.4702 6.65748 21.4315 4.65109 21.5167" fill="#F5F5F5"/>
<path d="M0.590983 36.8381C0.606658 33.7135 -0.0595256 29.8677 1.79795 27.4874C3.26356 25.6111 5.44237 24.5333 8.45195 24.5411C18.7033 24.5643 28.9547 24.5411 39.1983 24.5411C39.3237 24.5411 39.4491 24.5488 39.5667 24.5411C40.1388 24.5101 40.272 24.6186 39.9507 25.0451C38.7437 26.6655 37.5995 28.317 36.4003 29.9453C33.7748 33.5041 29.3309 33.1164 25.3887 33.1862C19.7144 33.287 14.0322 33.2095 8.36574 33.225C6.35151 33.225 4.34513 33.1862 2.33874 33.2715" fill="#F5F5F5"/>
<path d="M18.1631 30.9373C19.3535 30.9373 20.3184 29.9826 20.3184 28.8051C20.3184 27.6275 19.3535 26.6729 18.1631 26.6729C16.9728 26.6729 16.0078 27.6275 16.0078 28.8051C16.0078 29.9826 16.9728 30.9373 18.1631 30.9373Z" fill="#52AF29"/>
<path d="M23.2265 30.3171C24.0706 30.3171 24.7549 29.6402 24.7549 28.8051C24.7549 27.9701 24.0706 27.2932 23.2265 27.2932C22.3825 27.2932 21.6982 27.9701 21.6982 28.8051C21.6982 29.6402 22.3825 30.3171 23.2265 30.3171Z" fill="#52AF29"/>
<path d="M27.0038 29.681C27.4929 29.681 27.8894 29.2887 27.8894 28.8049C27.8894 28.321 27.4929 27.9287 27.0038 27.9287C26.5147 27.9287 26.1182 28.321 26.1182 28.8049C26.1182 29.2887 26.5147 29.681 27.0038 29.681Z" fill="#52AF29"/>
</svg>
