<svg width="216" height="216" viewBox="0 0 216 216" fill="none" xmlns="http://www.w3.org/2000/svg">
<g id="Group 1000004275">
<g id="Rectangle 4025" filter="url(#filter0_d_2_306)">
<rect x="31" y="17" width="154" height="154" rx="23" fill="white"/>
</g>
<g id="Layer 1">
<g id="Group">
<g id="Group_2">
<path id="Vector" d="M81.4431 98.513C81.6709 98.513 81.8607 98.589 82.0071 98.7408C82.159 98.8927 82.2295 99.0825 82.2295 99.3103C82.2295 99.538 82.1536 99.7278 82.0071 99.8797C81.8553 100.032 81.6709 100.107 81.4431 100.107H76.2531V104.527H79.9572C80.1849 104.527 80.3747 104.603 80.5266 104.755C80.6784 104.907 80.7544 105.097 80.7544 105.314C80.7544 105.531 80.6784 105.726 80.5266 105.867C80.3747 106.008 80.1849 106.078 79.9572 106.078H76.2531V111.377C76.2531 111.605 76.1772 111.794 76.0199 111.941C75.8626 112.093 75.6728 112.163 75.4559 112.163C75.239 112.163 75.0383 112.087 74.8865 111.935C74.7346 111.784 74.6587 111.594 74.6587 111.377V99.2669C74.6587 99.1801 74.675 99.0933 74.7075 99.0066C74.74 98.9198 74.7888 98.8384 74.8539 98.7625C74.919 98.6866 75.0004 98.6269 75.098 98.5781C75.1956 98.5293 75.3203 98.5022 75.4613 98.5022H81.454L81.4431 98.513Z" fill="#00092D"/>
<path id="Vector_2" d="M83.7371 103.638C84.2143 103.166 84.7675 102.797 85.3965 102.526C86.0256 102.255 86.7035 102.119 87.4194 102.119H87.4845C87.7502 102.119 87.9509 102.195 88.0973 102.347C88.2437 102.499 88.3142 102.689 88.3142 102.917C88.3142 103.144 88.2329 103.334 88.0702 103.481C87.9075 103.627 87.7123 103.703 87.4845 103.703H87.4194C86.915 103.703 86.4378 103.801 85.9931 103.996C85.5484 104.191 85.1579 104.457 84.8217 104.793C84.4855 105.129 84.2197 105.525 84.0245 105.981C83.8292 106.436 83.7316 106.919 83.7316 107.434V111.377C83.7316 111.599 83.6557 111.789 83.5039 111.941C83.352 112.098 83.1622 112.174 82.9344 112.174C82.7066 112.174 82.5277 112.098 82.3704 111.941C82.2131 111.784 82.1372 111.594 82.1372 111.377V102.922C82.1372 102.694 82.2131 102.504 82.3704 102.347C82.5277 102.19 82.7175 102.114 82.9453 102.114C83.173 102.114 83.3628 102.19 83.5093 102.347C83.6611 102.504 83.7316 102.694 83.7316 102.922V103.638H83.7371Z" fill="#00092D"/>
<path id="Vector_3" d="M89.7462 102.342C89.898 102.19 90.0878 102.114 90.3156 102.114C90.5434 102.114 90.7224 102.19 90.8796 102.342C91.0369 102.494 91.1128 102.683 91.1128 102.911V107.293C91.1291 108.329 91.3623 109.137 91.8233 109.712C92.2842 110.287 92.9296 110.574 93.7594 110.574C94.1661 110.574 94.5457 110.493 94.8982 110.336C95.2507 110.178 95.5599 109.956 95.8202 109.679C96.0859 109.403 96.2974 109.072 96.4547 108.687C96.612 108.302 96.7042 107.884 96.715 107.44V102.927C96.715 102.7 96.7909 102.51 96.9482 102.358C97.1055 102.206 97.2899 102.13 97.5122 102.13C97.7346 102.13 97.9189 102.206 98.0816 102.358C98.2389 102.51 98.3203 102.7 98.3203 102.927V111.382C98.3203 111.605 98.2389 111.794 98.0816 111.946C97.9244 112.104 97.7291 112.179 97.5014 112.179C97.2736 112.179 97.0892 112.104 96.9373 111.941C96.7855 111.778 96.715 111.594 96.715 111.371V110.574C96.3028 111.062 95.8256 111.447 95.2887 111.735C94.7518 112.022 94.1824 112.163 93.5858 112.163C92.9893 112.163 92.4036 112.044 91.9046 111.811C91.4057 111.577 90.9718 111.241 90.6193 110.807C90.2614 110.374 89.9902 109.853 89.795 109.256C89.6052 108.654 89.5076 107.982 89.5076 107.244V102.9C89.5076 102.673 89.5835 102.483 89.7353 102.331L89.7462 102.342Z" fill="#00092D"/>
<path id="Vector_4" d="M100.581 99.1476C100.76 98.9687 100.983 98.8765 101.249 98.8765C101.514 98.8765 101.737 98.9687 101.916 99.1476C102.095 99.332 102.187 99.5544 102.187 99.8147C102.187 100.075 102.095 100.292 101.916 100.476C101.731 100.661 101.509 100.753 101.249 100.753C100.988 100.753 100.76 100.661 100.581 100.476C100.402 100.292 100.31 100.07 100.31 99.8147C100.31 99.5598 100.402 99.3266 100.581 99.1476ZM102.051 111.377C102.051 111.599 101.975 111.789 101.823 111.941C101.672 112.098 101.482 112.174 101.265 112.174C101.048 112.174 100.853 112.098 100.695 111.941C100.533 111.784 100.457 111.594 100.457 111.377V102.922C100.457 102.694 100.533 102.505 100.69 102.347C100.847 102.19 101.037 102.114 101.265 102.114C101.493 102.114 101.682 102.19 101.829 102.347C101.975 102.505 102.051 102.694 102.051 102.922V111.377Z" fill="#00092D"/>
<path id="Vector_5" d="M106.721 102.13H107.968C108.196 102.13 108.386 102.206 108.538 102.358C108.69 102.51 108.766 102.7 108.766 102.928C108.766 103.155 108.69 103.345 108.538 103.497C108.386 103.649 108.196 103.725 107.968 103.725H106.721V111.382C106.721 111.605 106.645 111.789 106.488 111.941C106.331 112.093 106.141 112.169 105.924 112.169C105.707 112.169 105.506 112.093 105.349 111.941C105.192 111.789 105.116 111.599 105.116 111.382V103.725H104.091C103.863 103.725 103.673 103.649 103.516 103.492C103.359 103.334 103.283 103.145 103.283 102.928C103.283 102.711 103.359 102.51 103.516 102.358C103.673 102.206 103.863 102.13 104.091 102.13H105.116V99.2995C105.116 99.0718 105.192 98.882 105.349 98.7355C105.506 98.5837 105.696 98.5132 105.924 98.5132C106.152 98.5132 106.331 98.5891 106.488 98.7355C106.645 98.8874 106.721 99.0718 106.721 99.2995V102.13Z" fill="#00092D"/>
<path id="Vector_6" d="M113.733 109.522L116.786 102.613C116.878 102.407 117.025 102.261 117.231 102.174C117.431 102.087 117.637 102.098 117.843 102.196C118.044 102.288 118.185 102.44 118.266 102.646C118.348 102.852 118.342 103.058 118.25 103.264L112.805 115.428C112.708 115.634 112.556 115.781 112.35 115.862C112.149 115.943 111.943 115.938 111.737 115.846C111.531 115.748 111.401 115.596 111.346 115.396C111.292 115.195 111.314 114.994 111.417 114.788L112.903 111.426L109.264 103.269C109.215 103.161 109.188 103.058 109.183 102.949C109.183 102.841 109.199 102.743 109.237 102.646C109.275 102.548 109.329 102.461 109.405 102.38C109.475 102.299 109.562 102.233 109.66 102.19C109.866 102.098 110.072 102.092 110.273 102.179C110.473 102.266 110.625 102.412 110.717 102.619L113.738 109.528L113.733 109.522Z" fill="#00092D"/>
</g>
<g id="Group_3">
<path id="Vector_7" d="M134.667 100.796C134.667 101.008 134.591 101.192 134.434 101.349C134.277 101.512 134.087 101.593 133.87 101.593C133.653 101.593 133.463 101.517 133.306 101.371C132.774 100.839 132.178 100.438 131.522 100.178C130.865 99.9175 130.193 99.7873 129.504 99.7873C128.772 99.7873 128.078 99.9283 127.432 100.205C126.787 100.481 126.223 100.861 125.74 101.344C125.258 101.826 124.884 102.39 124.602 103.036C124.32 103.681 124.184 104.375 124.184 105.118C124.184 105.861 124.32 106.517 124.585 107.163C124.851 107.808 125.22 108.372 125.697 108.86C126.169 109.348 126.727 109.739 127.373 110.032C128.018 110.325 128.718 110.471 129.482 110.471C130.182 110.471 130.849 110.346 131.489 110.102C132.129 109.858 132.725 109.462 133.284 108.92C133.436 108.768 133.62 108.698 133.843 108.698C134.065 108.698 134.255 108.768 134.401 108.909C134.564 109.066 134.645 109.256 134.64 109.479C134.64 109.701 134.559 109.891 134.412 110.037C133.723 110.726 132.953 111.241 132.102 111.572C131.25 111.903 130.372 112.071 129.472 112.071C128.517 112.071 127.622 111.886 126.787 111.529C125.952 111.171 125.22 110.672 124.591 110.043C123.962 109.413 123.473 108.681 123.11 107.835C122.752 106.989 122.573 106.094 122.573 105.14C122.573 104.527 122.649 103.931 122.806 103.35C122.964 102.77 123.186 102.222 123.473 101.707C123.761 101.192 124.113 100.715 124.526 100.281C124.938 99.847 125.404 99.4728 125.919 99.1582C126.435 98.8437 126.993 98.5996 127.595 98.4261C128.197 98.2525 128.837 98.1658 129.51 98.1658C130.404 98.1658 131.277 98.3393 132.123 98.681C132.97 99.0281 133.74 99.5433 134.428 100.232C134.586 100.389 134.662 100.574 134.662 100.785L134.667 100.796Z" fill="#52AF29"/>
<path id="Vector_8" d="M137.807 103.486C138.219 102.992 138.696 102.607 139.233 102.315C139.77 102.027 140.34 101.881 140.947 101.881C141.554 101.881 142.124 102 142.623 102.233C143.122 102.466 143.55 102.803 143.903 103.231C144.261 103.659 144.532 104.18 144.732 104.777C144.928 105.379 145.025 106.046 145.025 106.778V111.154C145.025 111.382 144.949 111.572 144.792 111.718C144.635 111.87 144.445 111.941 144.217 111.941C143.989 111.941 143.81 111.865 143.659 111.718C143.507 111.566 143.431 111.382 143.431 111.154V106.756C143.425 106.246 143.36 105.785 143.241 105.379C143.122 104.972 142.943 104.63 142.715 104.348C142.482 104.066 142.205 103.849 141.88 103.703C141.554 103.551 141.186 103.48 140.773 103.48C140.361 103.48 139.987 103.562 139.635 103.719C139.282 103.882 138.973 104.099 138.713 104.381C138.447 104.663 138.235 104.994 138.078 105.373C137.915 105.753 137.829 106.165 137.818 106.604V111.133C137.818 111.355 137.742 111.539 137.59 111.697C137.438 111.854 137.248 111.93 137.031 111.93C136.815 111.93 136.614 111.854 136.457 111.697C136.299 111.539 136.223 111.35 136.223 111.133V99.0877C136.223 98.8599 136.305 98.6647 136.462 98.5074C136.625 98.3447 136.815 98.2688 137.031 98.2688C137.248 98.2688 137.438 98.3501 137.59 98.5074C137.742 98.6701 137.818 98.8599 137.818 99.0877V103.475L137.807 103.486Z" fill="#52AF29"/>
<path id="Vector_9" d="M146.479 106.984C146.479 106.279 146.614 105.617 146.88 104.999C147.146 104.381 147.509 103.844 147.975 103.383C148.442 102.922 148.979 102.558 149.597 102.293C150.215 102.027 150.877 101.891 151.571 101.891C152.265 101.891 152.921 102.022 153.534 102.287C154.147 102.553 154.684 102.905 155.139 103.361C155.6 103.811 155.964 104.343 156.229 104.955C156.495 105.568 156.636 106.219 156.652 106.919V111.111C156.652 111.339 156.577 111.534 156.419 111.696C156.262 111.859 156.067 111.941 155.834 111.941C155.6 111.941 155.421 111.859 155.275 111.696C155.129 111.534 155.058 111.339 155.058 111.111L155.047 110.579C154.592 111.024 154.071 111.382 153.48 111.659C152.889 111.93 152.254 112.065 151.582 112.065C150.909 112.065 150.226 111.93 149.608 111.664C148.989 111.398 148.447 111.035 147.986 110.568C147.525 110.108 147.156 109.565 146.891 108.952C146.625 108.34 146.489 107.678 146.489 106.973L146.479 106.984ZM148.078 106.984C148.078 107.461 148.171 107.911 148.35 108.329C148.534 108.752 148.778 109.12 149.093 109.435C149.407 109.75 149.776 110.004 150.199 110.189C150.622 110.373 151.077 110.465 151.56 110.465C152.043 110.465 152.509 110.373 152.932 110.189C153.355 110.004 153.724 109.75 154.038 109.435C154.353 109.12 154.597 108.746 154.776 108.329C154.955 107.906 155.042 107.461 155.042 106.984C155.042 106.506 154.955 106.046 154.776 105.623C154.597 105.2 154.353 104.831 154.038 104.516C153.724 104.202 153.355 103.952 152.932 103.773C152.509 103.589 152.048 103.502 151.56 103.502C151.072 103.502 150.622 103.594 150.199 103.773C149.776 103.958 149.407 104.202 149.093 104.516C148.778 104.831 148.528 105.2 148.35 105.623C148.165 106.046 148.078 106.501 148.078 106.984Z" fill="#52AF29"/>
<path id="Vector_10" d="M161.316 101.897H162.563C162.791 101.897 162.981 101.973 163.133 102.125C163.285 102.276 163.361 102.466 163.361 102.694C163.361 102.922 163.285 103.112 163.133 103.263C162.981 103.415 162.791 103.491 162.563 103.491H161.316V111.149C161.316 111.371 161.24 111.556 161.083 111.707C160.926 111.859 160.736 111.935 160.519 111.935C160.302 111.935 160.096 111.859 159.944 111.707C159.787 111.556 159.711 111.366 159.711 111.149V103.491H158.686C158.458 103.491 158.268 103.415 158.111 103.258C157.954 103.101 157.878 102.911 157.878 102.694C157.878 102.477 157.954 102.276 158.111 102.125C158.268 101.973 158.458 101.897 158.686 101.897H159.711V99.0659C159.711 98.8381 159.787 98.6483 159.944 98.5019C160.101 98.35 160.291 98.2795 160.519 98.2795C160.747 98.2795 160.926 98.3555 161.083 98.5019C161.24 98.6537 161.316 98.8381 161.316 99.0659V101.897Z" fill="#52AF29"/>
</g>
<path id="Vector_11" d="M112.291 119.349C103.039 125.629 92.9684 127.023 82.2901 123.649C80.9885 123.237 79.8985 123.281 78.6349 123.78C72.4687 126.215 66.27 128.557 59.5615 131.128C61.3186 124.973 62.848 119.36 64.5454 113.796C65.0552 112.12 64.963 110.845 63.9651 109.354C60.8197 104.674 59.03 99.4241 58.7426 93.8273C58.0159 79.6077 63.6397 68.4088 76.0101 61.3261C88.2014 54.3465 100.555 55.0623 112.308 62.8012L115.312 58.3868C106.255 52.2423 96.2928 50.0296 85.582 52.1447C58.7697 57.4431 45.3202 86.4789 58.4606 110.498C59.171 111.8 59.312 112.922 58.8836 114.338C57.197 119.924 55.6297 125.553 54.0081 131.161C53.4658 133.037 53.3791 134.827 55.0169 136.237C56.5462 137.549 58.1894 137.354 59.9628 136.654C65.7656 134.366 71.6335 132.234 77.4092 129.892C79.508 129.04 81.4224 128.764 83.6188 129.539C86.1623 130.434 88.8468 130.673 91.5746 130.711C100.241 130.835 108.191 128.628 115.355 123.715" fill="#52AF29"/>
<path id="Vector_12" d="M54.9517 79.9493C55.2337 76.0935 55.8302 71.923 57.929 69.2114C59.5831 67.0747 61.4595 65.9304 64.8544 65.9358C76.4112 65.9629 87.9681 65.9412 99.5249 65.9358C99.6659 65.9358 99.8069 65.9467 99.9425 65.9412C100.593 65.9087 100.734 66.028 100.376 66.5161C98.1637 69.5205 96.45 73.9621 92.6754 75.0414C88.4236 76.2507 84.7359 75.9091 80.8637 75.882C75.4947 75.8494 70.1258 75.8223 64.7568 75.844C62.4899 75.8494 60.223 75.8006 57.9561 75.8982" fill="#00092D"/>
<path id="Vector_13" d="M53.3896 93.35C53.4113 89.7869 52.652 85.405 54.7508 82.6934C56.4049 80.5567 58.8562 79.331 62.2511 79.3364C73.8079 79.3636 85.3648 79.3419 96.9216 79.3364C97.0626 79.3364 97.2036 79.3473 97.3392 79.3419C97.99 79.3093 98.131 79.4286 97.773 79.9167C96.4118 81.766 95.1211 83.6479 93.7653 85.5026C90.8096 89.5537 85.7986 89.1145 81.3516 89.1958C74.9522 89.3151 68.5474 89.2175 62.1535 89.2392C59.8866 89.2446 57.6197 89.1958 55.3528 89.2934" fill="#00092D"/>
<g id="Group_4">
<path id="Vector_14" d="M73.2004 86.6361C74.5452 86.6361 75.6354 85.5459 75.6354 84.2011C75.6354 82.8563 74.5452 81.7661 73.2004 81.7661C71.8556 81.7661 70.7654 82.8563 70.7654 84.2011C70.7654 85.5459 71.8556 86.6361 73.2004 86.6361Z" fill="#52AF29"/>
<path id="Vector_15" d="M78.9054 85.9202C79.8549 85.9202 80.6246 85.1505 80.6246 84.2011C80.6246 83.2516 79.8549 82.4819 78.9054 82.4819C77.956 82.4819 77.1863 83.2516 77.1863 84.2011C77.1863 85.1505 77.956 85.9202 78.9054 85.9202Z" fill="#52AF29"/>
<path id="Vector_16" d="M83.168 85.1991C83.7191 85.1991 84.1659 84.7523 84.1659 84.2012C84.1659 83.6501 83.7191 83.2034 83.168 83.2034C82.6169 83.2034 82.1702 83.6501 82.1702 84.2012C82.1702 84.7523 82.6169 85.1991 83.168 85.1991Z" fill="#52AF29"/>
</g>
</g>
</g>
</g>
<defs>
<filter id="filter0_d_2_306" x="0.9" y="0.9" width="214.2" height="214.2" filterUnits="userSpaceOnUse" color-interpolation-filters="sRGB">
<feFlood flood-opacity="0" result="BackgroundImageFix"/>
<feColorMatrix in="SourceAlpha" type="matrix" values="0 0 0 0 0 0 0 0 0 0 0 0 0 0 0 0 0 0 127 0" result="hardAlpha"/>
<feMorphology radius="10" operator="dilate" in="SourceAlpha" result="effect1_dropShadow_2_306"/>
<feOffset dy="14"/>
<feGaussianBlur stdDeviation="10.05"/>
<feComposite in2="hardAlpha" operator="out"/>
<feColorMatrix type="matrix" values="0 0 0 0 0 0 0 0 0 0 0 0 0 0 0 0 0 0 0.42 0"/>
<feBlend mode="normal" in2="BackgroundImageFix" result="effect1_dropShadow_2_306"/>
<feBlend mode="normal" in="SourceGraphic" in2="effect1_dropShadow_2_306" result="shape"/>
</filter>
</defs>
</svg>
